<?xml version="1.0" encoding="UTF-8" standalone="no"?>
<!-- Created with Inkscape (http://www.inkscape.org/) -->

<svg
   version="1.1"
   id="svg1"
   width="431.11035"
   height="182.30304"
   viewBox="0 0 431.11035 182.30304"
   sodipodi:docname="Text-Again-Transparent.svg"
   inkscape:version="1.4 (1:1.4+202410161351+e7c3feb100)"
   xmlns:inkscape="http://www.inkscape.org/namespaces/inkscape"
   xmlns:sodipodi="http://sodipodi.sourceforge.net/DTD/sodipodi-0.dtd"
   xmlns="http://www.w3.org/2000/svg"
   xmlns:svg="http://www.w3.org/2000/svg">
  <defs
     id="defs1">
    <inkscape:path-effect
       effect="powerclip"
       message=""
       id="path-effect3"
       is_visible="true"
       lpeversion="1"
       inverse="true"
       flatten="false"
       hide_clip="false" />
    <clipPath
       clipPathUnits="userSpaceOnUse"
       id="clipPath1">
      <rect
         style="opacity:0.39;fill:#ffffff;fill-opacity:1;stroke:#0369a1;stroke-width:0.995134;stroke-linecap:round;paint-order:stroke fill markers"
         id="rect1"
         width="425.08084"
         height="173.81856"
         x="50.901787"
         y="297.05643" />
    </clipPath>
    <clipPath
       clipPathUnits="userSpaceOnUse"
       id="clipPath5">
      <rect
         style="display:inline;opacity:0.39;fill:#000000;stroke:#0369a1;stroke-width:1.03424;stroke-linecap:round;paint-order:stroke fill markers"
         id="rect5"
         width="430.07611"
         height="181.2688"
         x="0.51711947"
         y="0.51712245" />
    </clipPath>
    <clipPath
       clipPathUnits="userSpaceOnUse"
       id="clipPath6">
      <rect
         style="display:inline;opacity:0.39;fill:#000000;stroke:#0369a1;stroke-width:1.03424;stroke-linecap:round;paint-order:stroke fill markers"
         id="rect6"
         width="430.07611"
         height="181.2688"
         x="48.663425"
         y="293.28375" />
    </clipPath>
    <clipPath
       clipPathUnits="userSpaceOnUse"
       id="clipPath2">
      <g
         inkscape:groupmode="layer"
         id="g2"
         inkscape:label="RECT-GRAY"
         style="display:none" />
    </clipPath>
  </defs>
  <sodipodi:namedview
     id="namedview1"
     pagecolor="#505050"
     bordercolor="#ffffff"
     borderopacity="1"
     inkscape:showpageshadow="0"
     inkscape:pageopacity="0"
     inkscape:pagecheckerboard="1"
     inkscape:deskcolor="#505050"
     inkscape:zoom="0.87527076"
     inkscape:cx="122.81914"
     inkscape:cy="290.19591"
     inkscape:window-width="1910"
     inkscape:window-height="737"
     inkscape:window-x="1920"
     inkscape:window-y="767"
     inkscape:window-maximized="0"
     inkscape:current-layer="layer2"
     inkscape:export-bgcolor="#d4d4d400"
     showgrid="false">
    <inkscape:page
       x="0"
       y="0"
       width="431.11035"
       height="182.30304"
       id="page2"
       margin="0"
       bleed="0" />
  </sodipodi:namedview>
  <g
     inkscape:groupmode="layer"
     id="layer2"
     inkscape:label="Again"
     clip-path="url(#clipPath5)"
     style="display:inline">
    <path
       id="path5"
       clip-path="none"
       style="display:inline;fill:#38af34;fill-opacity:1"
       inkscape:label="path-Again"
       d="M 130.69123 297.08108 C 129.89256 297.08134 128.947 297.12598 127.81232 297.20804 C 124.63919 297.43756 121.78367 297.88317 121.46857 298.19827 C 121.33938 298.32746 101.42935 349.98629 97.54865 360.89554 L 85.4549 361.07913 C 69.91814 361.31399 64.283787 362.18501 55.677556 368.54788 C 50.707111 372.22269 50.154542 373.56279 55.509587 374.56741 C 58.090604 375.05161 60.095915 371.31406 66.880681 369.11819 C 77.563689 365.66066 75.961094 366.89839 83.8299 366.86429 C 88.595863 366.84369 93.09181 367.75971 93.409978 368.07718 C 93.728146 368.39464 91.509017 375.74804 88.48029 384.41897 C 81.824511 403.47375 71.999822 435.84137 71.999822 438.71194 C 71.999822 441.03634 70.663142 440.86819 74.943181 440.86819 C 78.788362 440.86819 79.241278 439.86519 87.38654 413.36819 C 94.703336 389.56624 101.4899 369.88029 102.85138 368.50882 C 109.54909 367.90784 116.72145 370.93596 123.53693 369.46976 C 124.30847 386.59796 123.33954 422.33833 128.63654 435.88772 C 132.79239 446.51809 149.36543 448.80836 157.80451 443.07327 C 162.33304 439.99574 167.0337 435.11469 170.14631 430.4053 L 177.4881 419.29788 L 181.6092 424.10257 C 184.73301 427.03724 192.51984 427.79671 197.11896 425.61429 C 205.26155 421.55543 212.17656 408.87248 216.98615 401.7471 C 215.84047 407.9848 220.14252 415.3884 214.42365 420.69436 C 213.59865 421.11901 202.01724 429.51626 197.76154 431.54202 C 181.01921 439.51155 173.68307 451.12826 178.34552 462.28226 C 179.97712 466.18554 181.81075 467.79152 186.74006 469.63382 C 191.70769 471.49043 201.51426 470.70863 207.28693 467.99515 C 226.24597 457.96031 232.59915 439.59452 237.62873 420.1221 C 238.32733 418.90273 251.53651 404.79007 252.23029 404.79007 C 253.94725 404.79007 253.48117 423.62406 262.46467 426.10452 C 270.13213 428.22161 279.09113 425.25783 285.49006 414.3389 C 288.63062 408.97994 294.03041 397.61021 294.05451 404.87796 C 294.08121 412.93516 295.40787 426.12981 298.2342 431.78811 C 301.59112 438.50868 305.87606 438.19243 312.2381 438.80374 C 321.73482 439.71626 326.16918 425.18764 327.67951 419.7764 L 337.61115 384.19241 L 336.70881 418.11429 C 339.57615 429.31841 346.08309 440.98654 352.59552 436.56546 C 366.63344 427.03557 378.31162 372.28532 378.28302 409.88772 C 377.93889 420.98202 377.90017 440.20287 385.00763 437.91116 C 389.11084 436.58814 392.13817 438.52981 392.77521 437.74905 C 398.09293 431.23166 394.53956 392.59829 398.55256 383.68851 C 403.89064 371.83675 421.33243 358.59324 425.55256 394.49905 C 429.18746 425.42559 426.28354 430.70697 431.07013 435.84476 C 435.03253 440.09789 444.29861 443.41547 449.28302 438.65335 C 456.42044 431.83424 464.85867 417.73119 472.5174 399.20413 C 476.70535 389.07315 475.03992 386.66481 469.60138 387.19827 C 466.6607 387.48673 469.66268 388.27919 465.27131 399.7764 C 458.03063 418.73329 448.6792 425.94827 445.41193 425.94827 C 441.84191 425.94827 440.0539 419.24785 441.03302 383.99905 C 441.36785 371.2977 442.71875 351.25897 424.60724 352.17288 C 414.45059 352.81961 414.53007 353.00044 410.39045 355.56936 C 404.32126 359.3357 397.32141 375.29526 396.67756 372.03421 C 395.25286 364.81828 396.15701 361.53841 395.77912 348.9639 C 395.74952 347.97889 392.95902 344.47814 388.25568 344.21976 C 382.75596 343.91762 381.94747 348.28026 381.55451 349.90726 C 375.79689 373.74603 375.02371 386.14304 359.06427 416.86038 C 352.33914 429.8043 356.90197 370.28549 352.05256 349.44632 C 351.38172 346.56388 336.24779 339.82518 334.97248 349.45608 C 333.69718 359.08674 330.80612 385.42346 320.98224 415.05374 C 311.38079 444.01316 311.81164 415.08554 311.9217 410.94241 C 313.25969 360.57285 312.73897 364.69424 309.40412 355.26272 L 300.91388 355.95022 C 288.11318 356.98474 276.55878 355.98032 271.47052 358.46976 C 265.7446 361.27119 260.69695 366.60773 257.19709 373.5596 C 252.51114 383.9568 247.62475 405.16739 236.12677 411.12796 C 232.75087 412.87803 235.85952 400.00913 235.29279 391.83304 C 233.8 370.2969 232.51388 359.79053 229.66584 358.85843 C 226.77308 357.91173 229.73544 353.81309 221.82795 357.83694 C 221.22937 358.33376 214.88211 357.77436 211.1717 357.75296 C 195.1598 357.66056 181.72456 372.39702 176.14826 394.44827 C 175.02783 398.87899 171.95867 405.92817 173.43342 413.44436 C 174.20945 417.39946 156.71568 438.79358 154.25959 438.98343 C 142.76937 439.87158 142.11158 374.99505 142.99982 373.4346 C 143.56422 372.44307 144.89036 371.99708 152.24982 371.98538 C 162.3756 371.96928 166.88637 368.4336 167.37677 365.02835 C 167.84433 361.7818 165.37703 364.21612 153.95099 364.20022 C 148.28374 364.19222 144.51014 364.36147 143.02131 363.63577 C 141.22664 362.761 137.19437 301.14227 134.97638 298.46976 C 134.15346 297.47816 133.08722 297.08033 130.69123 297.08108 z M 122.44904 318.85452 C 122.07094 332.55568 122.24755 346.87424 122.65021 360.81546 C 117.68964 360.86636 113.92807 361.32192 107.15607 360.63968 C 107.60526 358.83168 111.45049 344.16048 114.29084 336.81936 C 118.17939 326.76906 121.25502 318.62544 122.44904 318.85452 z M 214.20099 361.92093 C 215.03151 361.94023 215.86248 362.10927 216.68927 362.44436 C 229.31454 367.56137 208.48027 414.00064 193.78693 418.8428 C 180.40091 423.25414 197.31382 361.52759 214.20099 361.92093 z M 290.43342 363.69241 C 291.87729 363.71898 293.07062 364.00357 293.73224 364.64944 C 296.96848 367.80867 295.12056 380.63437 287.54279 398.99124 C 277.17565 424.10524 271.09753 415.1367 267.13654 410.47757 C 265.27405 408.28682 263.73755 393.26549 266.68927 384.62601 C 269.38089 376.74774 276.28802 368.14253 280.24006 366.14749 C 282.86558 364.82209 287.25689 363.63397 290.43342 363.69241 z M 216.85138 425.1553 C 217.82438 424.68521 210.16523 462.46755 188.66193 465.5928 C 186.72047 465.87496 182.91847 460.70208 182.78107 458.23343 C 182.17395 447.32522 187.59885 442.7766 194.19123 438.50296 C 203.66353 432.36236 215.08563 426.00837 216.85138 425.1553 z "
       transform="translate(-48.146306,-292.76663)" />
  </g>
  <g
     inkscape:groupmode="layer"
     id="layer7"
     inkscape:label="Counter-Spaces"
     style="display:inline">
    <g
       inkscape:groupmode="layer"
       id="layer1"
       inkscape:label="A-counter-space"
       style="display:inline;fill:#000000;fill-opacity:1" />
    <g
       inkscape:groupmode="layer"
       id="layer4"
       inkscape:label="a-counter-space"
       style="display:inline;fill:#000000;fill-opacity:1" />
    <g
       inkscape:groupmode="layer"
       id="layer3"
       inkscape:label="g-counter-space-top"
       style="display:inline;fill:#000000;fill-opacity:1" />
  </g>
  <g
     inkscape:groupmode="layer"
     id="layer6"
     inkscape:label="Dot"
     style="display:inline">
    <ellipse
       style="display:inline;fill:#38af34;stroke-width:0.827384;stroke-linecap:round;paint-order:stroke fill markers"
       id="path2-3"
       cx="-307.33664"
       cy="29.442825"
       rx="9.9810715"
       ry="8.8294096"
       inkscape:label="path-Dot"
       transform="scale(-1,1)" />
  </g>
</svg>
