<?xml version="1.0" encoding="UTF-8" standalone="no"?>
<!-- Created with Inkscape (http://www.inkscape.org/) -->

<svg
   version="1.1"
   id="svg1"
   width="431.11035"
   height="182.30304"
   viewBox="0 0 431.11035 182.30304"
   sodipodi:docname="Text-Again-PATH.svg"
   inkscape:version="1.4 (1:1.4+202410161351+e7c3feb100)"
   xmlns:inkscape="http://www.inkscape.org/namespaces/inkscape"
   xmlns:sodipodi="http://sodipodi.sourceforge.net/DTD/sodipodi-0.dtd"
   xmlns="http://www.w3.org/2000/svg"
   xmlns:svg="http://www.w3.org/2000/svg">
  <defs
     id="defs1">
    <clipPath
       clipPathUnits="userSpaceOnUse"
       id="clipPath1">
      <rect
         style="opacity:0.39;fill:#ffffff;fill-opacity:1;stroke:#0369a1;stroke-width:0.995134;stroke-linecap:round;paint-order:stroke fill markers"
         id="rect1"
         width="425.08084"
         height="173.81856"
         x="50.901787"
         y="297.05643" />
    </clipPath>
    <clipPath
       clipPathUnits="userSpaceOnUse"
       id="clipPath5">
      <rect
         style="display:inline;opacity:0.39;fill:#000000;stroke:#0369a1;stroke-width:1.03424;stroke-linecap:round;paint-order:stroke fill markers"
         id="rect5"
         width="430.07611"
         height="181.2688"
         x="0.51711947"
         y="0.51712245" />
    </clipPath>
    <clipPath
       clipPathUnits="userSpaceOnUse"
       id="clipPath6">
      <rect
         style="display:inline;opacity:0.39;fill:#000000;stroke:#0369a1;stroke-width:1.03424;stroke-linecap:round;paint-order:stroke fill markers"
         id="rect6"
         width="430.07611"
         height="181.2688"
         x="48.663425"
         y="293.28375" />
    </clipPath>
    <clipPath
       clipPathUnits="userSpaceOnUse"
       id="clipPath2">
      <g
         inkscape:groupmode="layer"
         id="g2"
         inkscape:label="RECT-GRAY"
         style="display:none" />
    </clipPath>
  </defs>
  <sodipodi:namedview
     id="namedview1"
     pagecolor="#505050"
     bordercolor="#ffffff"
     borderopacity="1"
     inkscape:showpageshadow="0"
     inkscape:pageopacity="0"
     inkscape:pagecheckerboard="1"
     inkscape:deskcolor="#505050"
     inkscape:zoom="1.4512017"
     inkscape:cx="190.18721"
     inkscape:cy="243.59122"
     inkscape:window-width="1920"
     inkscape:window-height="1030"
     inkscape:window-x="1920"
     inkscape:window-y="559"
     inkscape:window-maximized="1"
     inkscape:current-layer="layer2"
     inkscape:export-bgcolor="#d4d4d400"
     showgrid="false">
    <inkscape:page
       x="0"
       y="0"
       width="431.11035"
       height="182.30304"
       id="page2"
       margin="0"
       bleed="0" />
  </sodipodi:namedview>
  <g
     inkscape:groupmode="layer"
     id="layer2"
     inkscape:label="Again"
     clip-path="url(#clipPath5)"
     style="display:inline">
    <path
       style="display:inline;fill:#000000"
       d="m 186.74052,469.63424 c -4.92931,-1.8423 -6.76382,-3.44883 -8.39542,-7.35212 -4.66245,-11.15399 2.67494,-22.76971 19.41727,-30.73924 4.2557,-2.02576 8.41263,-4.03063 9.23763,-4.45528 5.71887,-5.30596 4.09668,-14.1538 5.24236,-20.3915 -4.80959,7.12538 -6.98124,14.85904 -15.12383,18.9179 -4.59912,2.18242 -12.38464,1.42408 -15.50845,-1.51059 l -2.32466,-2.1839 -4.79627,10.00027 c -6.07922,12.67524 -8.66768,15.26462 -15.85496,15.86065 -10.16849,0.84325 -17.51607,-3.64148 -22.65957,-13.8307 -6.57098,-13.01705 -13.18756,-36.00663 -16.00596,-55.61343 l -1.1735,-8.1637 -5.98881,-0.69508 c -3.29384,-0.38229 -6.37243,-0.30862 -6.84132,0.16371 C 104.60355,371.0127 97.817225,390.69805 90.500429,414.5 82.355167,440.997 81.901288,442 78.056107,442 73.776068,442 72,441.03546 72,438.71106 c 0,-2.87057 9.825192,-35.23655 16.480971,-54.29133 3.028727,-8.67093 5.246457,-16.02506 4.928289,-16.34252 -0.318168,-0.31747 -4.477911,-0.56032 -9.243874,-0.53968 -7.868806,0.0341 -9.431727,0.38754 -17.001819,3.84507 -6.486698,2.96271 -9.072432,3.66948 -11.653449,3.18528 -5.355045,-1.00462 -5.651265,-4.60874 -0.68082,-8.28355 8.606231,-6.36287 15.938773,-8.36668 31.475533,-8.60154 l 12.0919,-0.18279 8.297219,-21 c 4.56347,-11.55 9.62587,-24.76417 11.24978,-29.36481 1.62391,-4.60065 3.21036,-8.62262 3.52546,-8.93771 0.3151,-0.3151 3.16911,-0.7607 6.34224,-0.99022 4.53871,-0.3283 6.06685,-0.0589 7.16408,1.26323 0.9794,1.18011 2.17941,10.88541 4.02981,32.59189 1.44929,17.00125 2.91665,31.19292 3.26079,31.53706 0.34414,0.34414 5.26255,0.63214 10.9298,0.64 11.42604,0.0159 14.08233,0.80664 13.61477,4.05319 -0.4904,3.40525 -4.4349,4.67649 -14.56068,4.69263 -7.35946,0.0117 -9.25,0.30782 -9.25,1.44873 0,3.17714 5.64618,36.53978 7.62542,44.43943 2.91672,11.64141 5.38048,18.12658 6.3694,18.12658 0.99282,0 10.65977,-18.67942 15.40772,-29.77229 1.8475,-4.31642 4.27582,-11.47318 5.39625,-15.9039 5.5763,-22.05125 17.9152,-34.60202 33.9271,-34.50965 3.71041,0.0214 7.23596,-0.36753 7.83454,-0.86431 0.59859,-0.49679 4.21642,-1.19397 8.03963,-1.5493 5.64528,-0.52467 7.19563,-0.35166 8.25174,0.92088 1.9138,2.30598 3.06579,16.88116 3.5275,34.29298 0.21725,8.19283 -2.62603,16.62099 0.95048,15.32947 11.49798,-4.15206 12.18147,-19.9867 16.86742,-30.3839 3.49986,-6.95187 8.54723,-12.28784 14.27315,-15.08928 5.08826,-2.48945 6.53902,-2.69251 21.96811,-3.07482 l 16.52006,-0.40934 0.66712,2.65802 c 1.83839,25.45715 -14.45215,116.41203 12.84889,49.10296 4.44333,-10.95476 9.35814,-15.7396 10.56941,-25.09305 1.90649,-14.72199 5.93577,-24.63418 8.20126,-26.89967 1.55707,-1.55707 2.85354,-1.87077 5.99198,-1.44981 2.20274,0.29545 4.47454,1.00673 5.04844,1.58063 0.72461,0.72461 0.6679,7.24209 -0.18557,21.32892 -1.69307,27.94478 2.0652,44.55778 4.88502,41.52648 19.57152,-21.03935 15.35768,-43.0898 21.1153,-66.92857 0.39296,-1.627 2.22679,-1.81245 7.73481,-1.81245 3.92819,0 7.93522,0.21499 7.96482,1.2 0.37789,12.57451 -1.06247,24.18804 0.36223,31.40397 0.64385,3.26105 3.61934,-4.03388 3.61934,-4.03388 9.65154,-17.44687 15.66868,-24.74927 25.82533,-25.396 6.31185,-0.40191 6.44614,-0.35633 10.29806,3.4956 5.7323,5.7323 6.63927,9.92528 6.12802,28.33031 -0.97912,35.2488 0.80964,41.94802 4.37966,41.94802 3.26727,0 9.295,-7.49113 16.53568,-26.44802 4.39141,-11.49721 4.71205,-12.01261 7.65273,-12.30107 5.43854,-0.53346 5.92361,1.46361 2.91601,12.00543 -5.44378,19.0808 -15.5438,36.22869 -23.23496,39.44851 -6.35889,2.66208 -14.24902,1.44578 -18.21142,-2.80736 -4.78659,-5.13779 -7.95298,-10.30138 -5.51882,-41.34551 3.06331,-39.06792 -3.02171,-33.27092 -10.76332,-24.35725 -3.01069,3.46651 -5.33378,10.07286 -6.8999,13.80033 -3.63222,8.64496 -9.12638,27.89556 -11.92047,41.76734 -1.19529,5.93427 -2.63222,11.35208 -3.19317,12.03958 -0.63704,0.78076 -3.61099,1.25 -7.92222,1.25 -6.48676,0 -6.96094,-0.15423 -7.87632,-2.56186 -0.53571,-1.40902 -1.27728,-5.79652 -1.64793,-9.75 l -0.67392,-7.18814 -2.22183,5.05379 c -4.01086,9.12314 -10.97687,13.34151 -19.83738,12.01279 -7.78428,-1.16732 -13.01925,-7.24754 -15.88659,-18.45166 l -1.31205,-5.12681 -6.72995,13.5071 c -9.81442,19.69766 -14.60957,28.95306 -24.10629,28.04054 -6.36204,-0.61131 -8.63108,-3.67316 -11.988,-10.39373 -2.82633,-5.6583 -5.76367,-19.77911 -5.79038,-27.83631 -0.0241,-7.26775 -1.26784,-8.01793 -4.4084,-2.65897 -6.39893,10.91893 -12.24238,14.5754 -19.90984,12.45831 -4.14446,-1.14434 -7.22568,-5.1168 -8.27483,-10.66835 -0.33781,-1.7875 0.68589,-3.25 -1.02219,-3.25 -0.69378,0 -16.82954,14.13089 -17.52814,15.35026 -0.36229,0.63235 -1.40173,4.07474 -2.30986,7.64974 -4.17038,16.41731 -15.6887,27.94184 -26.0417,32.80832 -5.77267,2.71348 -15.57905,3.49583 -20.54668,1.63922 z m 19.85628,-4.42657 c 9.04525,-4.6189 19.697,-14.9422 23.68959,-29.52097 2.75062,-10.04378 3.49886,-11.26268 10.3735,-16.89873 3.65067,-2.99293 7.95927,-6.8276 9.57467,-8.52148 3.47115,-3.6398 5.56075,-3.95118 5.56849,-0.82979 0.0188,7.58929 4.73049,14.75291 9.69897,14.74626 4.81357,-0.006 8.79663,-3.43331 14.41248,-12.39996 7.02881,-11.22269 8.15722,-11.04725 9.10316,1.41536 1.73243,12.49225 5.20363,39.74032 17.21003,37.92074 6.78078,-1.02763 10.45961,-7.75156 20.32269,-27.27613 4.71461,-9.33286 9.07476,-16.80126 9.68922,-16.59644 0.61446,0.20482 1.7448,3.49564 2.51186,7.31294 4.41363,21.96428 21.39419,27.49446 31.54477,7.44053 2.08792,-4.125 4.35121,-7.62639 5.02954,-7.78087 0.86102,-0.19608 1.61883,2.97353 2.51042,10.5 0.70241,5.92948 1.65962,11.16637 2.12713,11.63754 0.46752,0.47117 3.12005,0.54447 5.89453,0.16288 l 5.04449,-0.69379 1.63398,-7.66288 c 5.67664,-26.62194 11.77321,-45.35953 18.22135,-56.00274 6.24942,-10.31519 9.18858,-10.82878 12.21605,-10.47758 5.24952,0.60896 7.00115,0.79917 5.52628,33.31744 -1.28078,28.23911 0.18328,29.91927 1.86607,33.76872 1.02634,2.3478 2.99953,5.1603 4.38486,6.25 3.3532,2.63763 10.65184,2.64282 14.96883,0.0106 6.51484,-3.97227 13.65847,-16.69057 19.48535,-34.69114 2.55005,-7.8777 2.84609,-9.68853 1.69973,-10.39702 -1.8825,-1.16345 -1.95998,-1.02704 -6.84893,12.05881 -7.83865,20.98109 -13.12626,27.32723 -18.06666,26.75304 -1.6892,-0.19632 -3.72275,1.36779 -4.54978,-0.36594 -2.17425,-4.5579 -4.32972,-17.86268 -3.24317,-31.3871 1.30153,-16.20035 0.65529,-29.4298 -1.66114,-34.00546 -4.23225,-8.36001 -9.27239,-10.54539 -16.68278,-7.23354 -7.13695,3.18964 -12.50718,9.60856 -19.23315,22.989 -2.66498,5.30163 -4.17213,7.25 -5.60819,7.25 C 390.47875,381.82535 392.61739,358.90088 392.5,351.5 l -5.20705,0.0404 c -2.86388,0.0222 -5.43464,0.26797 -5.7128,0.54614 -1.16893,1.16893 -3.81016,20.41185 -4.66837,32.91348 -1.29482,18.86181 -14.25662,33.6288 -17.73773,35.84258 -5.34051,3.39625 -9.68701,-1.35917 -8.76225,-34.34258 0.37009,-13.2 0.76633,-25.35 0.88054,-27 0.19164,-2.76861 -0.0706,-3.02328 -3.39954,-3.30185 -3.14413,-0.2631 -3.75204,0.0578 -4.73547,2.5 -1.84704,4.5868 -5.00972,15.1818 -6.13774,25.1485 -1.00706,8.89786 -2.28328,8.39999 -10.76826,25.2057 -10.95149,21.69099 -12.88846,26.56473 -15.58928,26.56473 -3.07493,0 -7.23203,-0.0475 -5.99094,-24.05358 2.16852,-41.94534 4.60106,-48.34298 3.95651,-50.91106 l -0.65058,-2.59213 -15.23852,0.2554 c -14.77816,0.24768 -15.40228,0.34495 -20.6591,3.21983 -8.97779,4.90983 -15.0698,15.27778 -17.00462,28.94006 -0.95411,6.73733 -10.07867,16.56087 -16.0243,16.73574 -2.17346,0.0639 -4.31202,0.80172 -3.47314,-9.85488 1.13348,-14.39899 -0.0814,-36.20497 -1.40112,-39.5191 -0.97565,-2.45006 -1.4042,-2.6182 -5.36827,-2.10617 -2.36938,0.30605 -5.43297,1.03562 -6.80797,1.62127 -1.375,0.58565 -5.65,1.1038 -9.5,1.15146 -5.51725,0.0683 -8.08831,0.65108 -12.13785,2.75136 -9.24895,4.79694 -16.52008,15.87262 -20.20266,30.7735 -2.87752,11.64335 -14.94566,38.61576 -20.35396,45.4913 -2.82707,3.59404 -4.30454,3.08314 -6.56483,-2.2701 -4.2537,-10.07435 -14.1322,-59.76322 -12.64951,-63.62705 0.35142,-0.91578 3.57739,-1.52996 10.37653,-1.97553 C 161.25331,368.97336 164,368.39284 164,366.89301 164,366.40186 159.13601,366 153.19113,366 c -7.09774,0 -11.37711,-0.42918 -12.46391,-1.25 -1.36657,-1.03213 -2.10434,-6.56596 -4.23288,-31.75 -1.41782,-16.775 -2.76994,-31.0625 -3.00471,-31.75 -0.25613,-0.75004 -2.21566,-1.25 -4.89923,-1.25 -5.14432,0 -5.13697,-0.008 -8.6647,10 -5.44758,15.4553 -19.10082,48.99103 -20.241191,49.71739 -0.65148,0.41495 -7.034509,0.78168 -14.184509,0.81494 -14.192275,0.066 -19.991902,1.55454 -27.059083,6.94494 -6.850012,5.22476 -2.739116,6.1603 6.872093,1.56392 3.402844,-1.62735 8.929302,-3.39104 12.281016,-3.91932 7.454482,-1.17493 18.38685,-0.33528 19.077779,1.46525 0.272986,0.71139 -2.846328,11.10781 -6.931808,23.10316 -10.06086,29.53962 -15.352981,48.09674 -14.079426,49.37029 2.424559,2.42456 4.372247,-0.52683 7.858285,-11.90789 8.167401,-26.66457 18.988194,-58.51687 20.337664,-59.86634 1.10623,-1.10624 2.8849,-1.29362 7.54546,-0.79493 3.35391,0.35888 6.88447,0.87512 7.8457,1.1472 1.9455,0.55069 1.98375,0.68669 4.27173,15.18666 2.72294,17.25648 7.19406,32.42248 13.6077,46.15718 6.05536,12.96746 9.76004,16.01755 19.45515,16.01755 5.1555,0 5.97573,-0.31189 8.85826,-3.36825 1.74717,-1.85254 5.26499,-8.04004 7.81739,-13.75 2.60677,-5.8316 5.32036,-10.52346 6.19141,-10.70507 0.85287,-0.17783 1.55068,0.18012 1.55068,0.79545 1.40859,4.08949 5.69847,7.17259 9.73294,6.56055 7.02283,-1.06536 9.23708,-0.31346 15.52838,-13.32385 3.84457,-7.95057 5.82455,-11.01273 7.12077,-11.01273 1.37462,0 1.81205,0.79561 1.79547,3.39405 -0.0888,13.91884 -2.23342,20.94209 -3.24455,22.90985 -0.56523,1.1 -5.39388,4.10312 -10.73035,6.67361 -5.33646,2.57048 -11.40322,6.10151 -13.48168,7.84673 -9.56111,8.02814 -10.33128,20.85886 -1.52289,25.37099 4.43728,2.27301 14.80791,1.67124 20.39871,-1.18366 z m -14.90754,-5.07725 c -2.70638,0.11257 -4.83465,-1.85618 -4.83465,-6.02986 0,-4.17146 3.99986,-9.3765 8.07609,-12.60493 4.78554,-3.79022 20.10849,-9.86991 21.07117,-8.90723 0.41227,0.41227 1.09731,2.18285 -0.74074,6.09963 -8.31113,17.71052 -12.29047,20.97315 -23.57187,21.44239 z m 9.41106,-6.22292 c 6.32237,-4.83998 12.52122,-17.6711 8.78847,-16.31105 -1.60436,0.58455 -7.05973,2.78247 -10.91846,5.61627 -5.61397,4.12285 -7.20969,3.07185 -8.2133,11.28104 -0.52411,4.28701 8.17224,1.07576 10.34329,-0.58626 z m 13.19329,-89.06625 c 7.54865,5.13244 -9.48344,39.67613 -18.47731,48.65435 -10.57568,10.55728 0.86743,-60.62755 18.47731,-48.65435 z m -0.24546,4.67549 c -1.88064,-7.49304 -10.22794,-1.97143 -15.13148,11.98004 -4.26399,12.13181 -6.15827,26.17482 -4.01252,28.36599 3.02391,3.08793 20.72295,-34.05487 19.144,-40.34603 z m 50.09811,39.93826 c -1.81817,-2.19075 -0.0927,-15.81551 2.78877,-24.455 2.62757,-7.87827 9.29785,-16.75918 13.15584,-18.75422 3.72806,-1.92786 7.38389,-1.8402 9.45069,0.22659 3.15922,3.15923 2.43885,6.8232 -6.28647,24.58736 -12.33538,25.114 -15.2421,23.0544 -19.10883,18.39527 z m 10.26974,-7.30465 c 2.94775,-5.47287 6.82067,-12.92833 9.61434,-19.12013 5.79534,-12.84459 5.27371,-14.52963 0.89601,-15.0388 -5.72549,-0.66594 -14.4433,11.51097 -17.42723,25.59614 -1.64868,7.78233 -1.79297,14.43144 -0.35605,14.43144 0.51904,0 4.0311,0.15024 7.27293,-5.86865 z M 108.25,361.96884 c -1.2375,-0.49742 -2.25,-1.23129 -2.25,-1.63082 0,-0.39954 2.32392,-6.7328 5.16427,-14.07392 3.88855,-10.0503 5.55598,-13.27232 6.75,-13.04324 1.34686,0.25842 1.62742,2.52422 1.86246,15.04169 L 120.05347,363 l -4.77674,-0.0634 c -2.6272,-0.0349 -5.78923,-0.47036 -7.02673,-0.96777 z m 9.39798,-7.21884 c -0.34683,-2.8875 -0.66622,-7.5 -0.70975,-10.25 l -0.0791,-5 -1.33502,3.5 c -0.73425,1.925 -2.49868,6.5375 -3.92094,10.25 l -2.58593,6.75 h 4.63069 4.6307 z M 344,345 c -5.32062,-5.32062 0.82756,-14.51502 8.43007,-12.60691 3.66981,0.92107 5.56993,3.36988 5.56993,7.17834 0,4.72774 -2.90858,7.42857 -8,7.42857 -2.66667,0 -4.66667,-0.66667 -6,-2 z m 8.36819,-1.1219 c 3.07078,-1.39914 3.85408,-4.11575 1.96457,-6.81341 C 351.47966,332.99133 345,335.4484 345,340.60365 c 0,2.11982 1.22213,3.2458 4.70295,4.33296 0.11162,0.0349 1.31098,-0.44146 2.66524,-1.05851 z M 131,190.30734 c 0,-0.75356 0.74721,-1.65684 1.66047,-2.00729 1.41637,-0.54351 1.33922,-0.75602 -0.52484,-1.44558 -1.73298,-0.64107 -2.05423,-1.33061 -1.55206,-3.33143 C 130.97529,181.9623 130.79406,181 130.10841,181 129.49878,181 129,182.35 129,184 c 0,2.96145 -0.0691,3 -5.37803,3 -4.4455,0 -5.65017,-0.39014 -6.94755,-2.25 l -1.56952,-2.25 -0.0525,2.25 c -0.0365,1.56585 -0.66058,2.25 -2.05245,2.25 -1.80952,0 -2,-0.66667 -2,-7 0,-6.33333 0.19048,-7 2,-7 1.39187,0 2.01595,0.68415 2.05245,2.25 l 0.0525,2.25 1.56952,-2.25 c 0.86324,-1.2375 2.18964,-2.25 2.94755,-2.25 1.5806,0 1.88061,3.57135 0.37803,4.5 -1.38984,0.85897 -1.25416,1.80582 0.58164,4.05887 1.44466,1.77303 1.53134,1.7827 1.00089,0.11167 C 120.74812,179.04199 121.9757,175 123.60841,175 c 0.76537,0 1.39159,0.45 1.39159,1 0,0.55 2.025,1 4.5,1 2.475,0 4.5,0.41551 4.5,0.92336 0,0.50784 1.30925,0.27021 2.90945,-0.52808 2.234,-1.11446 4.21584,-1.24656 8.53654,-0.56901 3.0949,0.48533 6.68522,0.68014 7.97849,0.43292 1.29327,-0.24723 3.27452,0.0445 4.40277,0.64836 1.35311,0.72416 2.26231,0.75655 2.67108,0.0952 0.34084,-0.55148 1.44315,-1.0027 2.44958,-1.0027 1.1288,0 1.77666,-0.67029 1.69098,-1.74952 -0.088,-1.1078 0.6864,-1.8669 2.11111,-2.06955 2.15134,-0.306 2.25,-0.01 2.25,6.74952 V 187 h -3.8 c -2.09,0 -4.28921,-0.48921 -4.88713,-1.08713 -0.78285,-0.78285 -1.2752,-0.78285 -1.75902,0 -0.90258,1.46041 -5.85661,1.38437 -7.35385,-0.11287 -0.66,-0.66 -1.2,-2.01 -1.2,-3 0,-0.99 -0.675,-1.8 -1.5,-1.8 -1.1306,0 -1.5,1.21473 -1.5,4.93261 0,5.75696 -0.40393,5.99918 -9.75,5.84676 -4.57595,-0.0746 -6.25,-0.46891 -6.25,-1.47203 z m 10.72917,0.0885 c -0.3323,-0.33229 -1.1948,-0.36781 -1.91667,-0.0789 -0.79773,0.31922 -0.56078,0.55618 0.60417,0.60416 1.05416,0.0434 1.64479,-0.19293 1.3125,-0.52522 z m -2.91652,-2.74607 c 1.39417,0.44527 1.43502,0.36023 0.2351,-0.48944 -1.81246,-1.28342 -3.08384,-0.56844 -2.93175,1.6487 0.10866,1.58401 0.14426,1.58379 0.56265,-0.004 0.27955,-1.06062 1.07791,-1.49297 2.134,-1.15567 z m 2.85402,-2.10577 c 0,-0.80081 -0.38234,-1.21971 -0.84965,-0.9309 -0.4673,0.28881 -0.59075,0.94401 -0.27431,1.45601 0.80862,1.30838 1.12396,1.16106 1.12396,-0.52511 z m -17.97368,-5.27496 c -0.25354,-0.97297 -0.47766,-0.41903 -0.49804,1.23097 -0.0204,1.65 0.18706,2.44606 0.46099,1.76903 0.27392,-0.67703 0.29059,-2.02703 0.037,-3 z m 40.65635,1.19894 C 163.55611,179.40086 163,179.64445 163,182.05902 c 0,1.13246 0.43035,1.79305 0.95633,1.46797 0.52598,-0.32507 0.70283,-1.25163 0.39301,-2.05902 z M 139,181.62244 c 0,-0.20765 -0.7875,-0.99515 -1.75,-1.75 -1.58606,-1.24387 -1.62143,-1.2085 -0.37756,0.37756 1.30637,1.66575 2.12756,2.19548 2.12756,1.37244 z M 174,180 c 0,-6.35808 0.18537,-7 2.02144,-7 1.18578,0 2.49233,1.03349 3.16051,2.5 0.6265,1.375 1.44462,2.5 1.81805,2.5 0.37343,0 1.19155,-1.125 1.81805,-2.5 1.53751,-3.37449 5.18195,-3.4187 5.18195,-0.0629 0,2.20931 0.31529,2.38596 3.37287,1.88979 1.85508,-0.30104 3.65702,-0.0876 4.00432,0.47437 1.03535,1.67524 6.62281,-0.93177 6.62281,-3.09008 0,-1.34686 0.61221,-1.76336 2.25,-1.53076 1.83773,0.261 2.19218,0.85584 1.93442,3.24642 -0.24992,2.31795 -0.0419,2.70308 1,1.85122 0.78849,-0.64468 5.72281,-1.01603 12.31558,-0.92687 l 11,0.14878 0.30479,4.75 c 0.27107,4.22444 0.0774,4.75 -1.75,4.75 C 227.43836,187 227,186.36 227,184 c 0,-1.65 -0.45,-3 -1,-3 -0.55,0 -1,1.35 -1,3 0,2.33333 -0.44444,3 -2,3 -1.55556,0 -2,-0.66667 -2,-3 0,-1.65 -0.45,-3 -1,-3 -0.55,0 -1,1.2759 -1,2.83534 v 2.83534 l -10.2331,0.0936 c -5.6282,0.0515 -10.76314,-0.34625 -11.41097,-0.8839 -0.77015,-0.63917 -1.39403,-0.62779 -1.80234,0.0329 -0.34346,0.55572 -3.08352,0.98104 -6.08903,0.94514 -5.43299,-0.0649 -5.46495,-0.0834 -5.53224,-3.21185 -0.0643,-2.99012 -0.12164,-3.0347 -1.15281,-0.89658 -1.29864,2.69269 -3.29836,2.90545 -4.69941,0.5 -0.87141,-1.49611 -1.02369,-1.35103 -1.04969,1 -0.0195,1.76426 -0.56808,2.75 -1.53041,2.75 -1.19048,0 -1.5,-1.44444 -1.5,-7 z m 18.1125,0.7125 C 191.29583,179.89583 191,180.00774 191,181.13333 c 0,0.84334 0.32812,1.86146 0.72917,2.2625 0.40104,0.40104 0.90166,0.21167 1.1125,-0.42083 0.21083,-0.6325 -0.1173,-1.65063 -0.72917,-2.2625 z m 24.57061,1.1 c -0.31922,-0.79773 -0.55618,-0.56078 -0.60416,0.60417 -0.0434,1.05416 0.19292,1.64479 0.52522,1.3125 0.33229,-0.3323 0.36781,-1.1948 0.0789,-1.91667 z m -40.99012,-2.54347 c -0.25354,-0.97297 -0.47766,-0.41903 -0.49804,1.23097 -0.0204,1.65 0.18706,2.44606 0.46099,1.76903 0.27392,-0.67703 0.29059,-2.02703 0.0371,-3 z M 202,182 c 0,-0.55 -0.45,-1 -1,-1 -0.55,0 -1,0.45 -1,1 0,0.55 0.45,1 1,1 0.55,0 1,-0.45 1,-1 z m 20.27445,-49.09319 C 216.55868,130.07754 214,125.70911 214,118.77985 c 0,-12.99735 11.79915,-19.345571 24.75,-13.31609 5.06554,2.35835 5.25,2.58639 5.25,6.49024 0,5.11773 -2.02102,5.3661 -4.96069,0.60961 C 233.22307,103.15274 221,107.53362 221,119.0291 c 0,8.43628 7.61396,13.7313 13.65772,9.49809 1.7674,-1.23794 2.02136,-2.19478 1.59245,-6 L 235.7399,118 h 4.26934 4.26934 l -0.6306,5.25 c -0.34683,2.8875 -0.63451,6.31498 -0.63929,7.61663 -0.007,1.89668 -0.41829,2.25952 -2.07139,1.82723 -1.13448,-0.29668 -3.59503,0.10084 -5.46788,0.88336 -4.69643,1.9623 -8.24002,1.78225 -13.19497,-0.67041 z M 241,125 c 0,-2.2 -0.45,-4 -1,-4 -0.55,0 -1,1.8 -1,4 0,2.2 0.45,4 1,4 0.55,0 1,-1.8 1,-4 z m -21.96482,0.0657 c -1.70274,-3.18161 -1.1987,-10.2706 1.0001,-14.06574 l 2.02781,-3.5 -2.52744,3 c -3.42014,4.0596 -4.21756,8.84681 -2.18399,13.11125 0.88879,1.86381 1.8641,3.38875 2.16735,3.38875 0.30324,0 0.0855,-0.87042 -0.48383,-1.93426 z m 60.58412,8.89984 C 273.48143,132.12782 269,125.72109 269,118.78406 c 0,-5.97923 2.84551,-10.7767 8.01262,-13.50914 C 288.23703,99.339311 300,106.24997 300,118.77985 c 0,6.96479 -2.59611,11.36212 -8.35343,14.1492 -4.53339,2.19457 -7.34908,2.43724 -12.02727,1.03653 z m -2.48864,-6.14314 c -1.70866,-1.74766 -3.38714,-4.67266 -3.72995,-6.5 C 273.0579,119.4951 272.34717,118 271.82132,118 c -0.52585,0 -0.70077,0.9 -0.38871,2 0.31207,1.1 0.81644,2.88024 1.12084,3.95608 0.50315,1.77832 5.84202,7.04392 7.14193,7.04392 0.29807,0 -0.85606,-1.4299 -2.56472,-3.17756 z m 14.41479,-0.27699 C 297.6722,121.41871 291.41938,108 282.43772,108 278.63679,108 275,111.74889 275,115.66698 275,121.88525 281.57998,130 286.62218,130 c 1.3578,0 3.57327,-1.10455 4.92327,-2.45455 z m 4.72293,-14.26004 c -1.03092,-1.98652 -2.97554,-4.3259 -4.32138,-5.19863 -2.3578,-1.52894 -2.34546,-1.46397 0.33871,1.78238 1.53214,1.85304 3.33214,5.44608 4,7.98452 1.05923,4.02602 1.25533,4.25962 1.53567,1.82947 0.17676,-1.53224 -0.52209,-4.41122 -1.553,-6.39774 z m 110.35092,20.68017 c -8.92014,-2.67081 -13.37916,-14.35072 -8.76396,-22.95626 2.23209,-4.16197 8.99729,-8.0133 14.05194,-7.99955 1.976,0.005 5.95522,1.10967 8.84272,2.45399 5.06554,2.35835 5.25,2.58639 5.25,6.49024 0,4.97982 -2.2107,5.47301 -4.51951,1.00827 -0.86398,-1.67075 -3.09327,-3.76371 -4.95398,-4.65102 -2.90073,-1.38326 -3.83795,-1.42489 -6.57308,-0.29196 -4.01808,1.66434 -6.94485,6.37934 -6.94969,11.19591 -0.005,5.15286 4.90328,10.79794 9.34985,10.753 5.01561,-0.0507 6.85464,-2.07763 6.47325,-7.13463 L 418.5,118.5 l 3.75,-0.31037 3.75,-0.31036 v 7.66877 c 0,7.59122 -0.0242,7.6627 -2.39522,7.06761 -1.31737,-0.33063 -4.00292,0.0706 -5.96788,0.8916 -3.93896,1.6458 -6.67188,1.75949 -11.0176,0.45833 z M 423,124.89301 c 0,-5.32114 -1.71479,-4.93823 -2.14931,0.47993 -0.2561,3.19349 -0.0135,4.2435 0.89931,3.89302 0.70375,-0.27021 1.25,-2.18117 1.25,-4.37295 z m -20.83369,1.80738 c -1.73763,-2.09371 -2.49326,-9.32375 -1.32477,-12.67567 0.59306,-1.70127 0.663,-2.83654 0.15541,-2.52283 -1.69916,1.05013 -2.87843,7.42455 -1.96365,10.61422 0.85442,2.97919 2.68672,5.88389 3.71159,5.88389 0.275,0 0.0146,-0.58483 -0.57858,-1.29961 z M 173,132 c -124.853694,160.76663 -124.853694,160.76663 0,0 z m 21.42073,-23.46442 c -1.6064,-0.83771 -12.47783,9.09496 -6.97975,9.46442 1.34254,0 2.7191,-0.45 3.05902,-1 4.69567,-4.54096 4.94331,10.53018 0,6 -0.17029,-0.27553 -7.67447,-4.93821 -0.059,7 2.99254,0 5.7191,-0.45 6.05902,-1 0.33992,-0.55 1.29637,-1 2.12544,-1 1.05448,0 1.41233,0.82628 1.19098,2.75 l -0.31642,2.75 -10.75,0.28383 c 0,0 24.89362,-28.44079 5.67073,-25.24825 z M 182.07378,118.974 C 182.03948,102.91171 181,101.66975 181,119 c 0,7.33333 0.24748,13.08585 0.54996,12.78337 0.30248,-0.30247 0.52382,-12.80937 0.52382,-12.80937 z M 245,119 v -15 h 8.88922 c 7.14887,0 9.3351,0.36105 11.16666,1.84417 3.49687,2.83159 3.08211,7.74985 -0.95796,11.35965 l -3.23541,2.89084 3.06874,5.43752 c 4.03948,7.15757 3.97523,8.46782 -0.41522,8.46782 -3.23346,0 -3.69092,-0.40927 -6.36212,-5.69189 -2.7798,-5.49739 -2.92016,-5.61339 -4.10757,-3.3947 -0.72538,1.35539 -0.96832,3.68893 -0.59256,5.69189 L 253.09063,134 H 249.04531 245 Z m 5,0 c 0,-8 -0.38462,-13 -1,-13 -0.61538,0 -1,5 -1,13 0,8 0.38462,13 1,13 0.61538,0 1,-5 1,-13 z m 10.77168,6.60661 c -1.79942,-3.51637 -3.5554,-6.22305 -3.90218,-6.01484 -0.79448,0.47701 5.35577,12.38919 6.40218,12.40015 0.42443,0.004 -0.70057,-2.86895 -2.5,-6.38531 z m -1.29304,-12.87958 c 1.85996,-2.65546 0.61052,-4.1937 -4.22864,-5.20604 l -3.25,-0.6799 v 6.14755 6.14755 l 2.98203,-2.12339 c 1.64011,-1.16787 3.66359,-3.09646 4.49661,-4.28577 z M 265,110.94813 c 0,-0.93678 -0.59546,-2.19743 -1.32325,-2.80144 -1.05995,-0.87968 -1.23519,-0.49824 -0.88071,1.917 0.29268,1.99416 -0.18804,3.76376 -1.4196,5.22576 -1.60559,1.906 -1.48425,1.87655 0.88071,-0.21376 C 263.76572,113.74231 265,111.88491 265,110.94813 Z m -10.27083,-5.5523 c -0.3323,-0.33229 -1.1948,-0.36781 -1.91667,-0.0789 -0.79773,0.31922 -0.56078,0.55618 0.60417,0.60416 1.05416,0.0434 1.64479,-0.19292 1.3125,-0.52522 z m 52.41108,14.79371 C 304.31311,112.53658 302,105.73601 302,105.07717 c 0,-0.76582 1.29572,-1.08595 3.59226,-0.88754 3.52613,0.30466 3.64382,0.45763 6.39345,8.31037 1.54065,4.4 3.33833,9.35 3.99483,11 l 1.19363,3 3.00348,-8 c 1.65191,-4.4 2.97643,-9.4625 2.94337,-11.25 -0.0546,-2.95053 0.21351,-3.25 2.90943,-3.25 1.72337,0 2.95822,0.52456 2.94255,1.25 -0.0149,0.6875 -2.21956,7.325 -4.89936,14.75 l -4.87237,13.5 -3.46039,0.302 -3.46039,0.30201 z m 9.27227,11.04515 c -0.59812,-0.40408 -3.0219,-6.24719 -5.38618,-12.98469 -2.36429,-6.7375 -4.67402,-12.25 -5.13275,-12.25 -0.45872,0 1.00239,5.0625 3.24693,11.25 2.24453,6.1875 4.30862,12.0375 4.58685,13 0.27824,0.9625 1.24091,1.74311 2.13926,1.73469 1.01802,-0.01 1.22367,-0.2921 0.54589,-0.75 z M 331,118.99885 v -15.06882 l 10.23827,0.28499 c 9.05272,0.25198 10.27944,0.49992 10.59378,2.1412 0.57317,2.9927 -1.18543,3.86146 -4.41132,2.17921 -1.6064,-0.83771 -4.38323,-1.52588 -6.17073,-1.52927 L 338,107 v 5.5 c 0,5.16454 0.14888,5.5 2.44098,5.5 1.34254,0 2.7191,-0.45 3.05902,-1 0.33992,-0.55 1.26648,-1 2.05902,-1 1.01448,0 1.44098,1.18392 1.44098,4 0,2.81608 -0.4265,4 -1.44098,4 -0.79254,0 -1.7191,-0.45 -2.05902,-1 -0.33992,-0.55 -1.71648,-1 -3.05902,-1 C 338.25984,122 338,122.42579 338,126 v 4 h 5.44098 c 2.99254,0 5.7191,-0.45 6.05902,-1 0.33992,-0.55 1.29637,-1 2.12544,-1 1.05448,0 1.41233,0.82628 1.19098,2.75 L 352.5,133.5 341.75,133.78383 331,134.06766 Z m 4.07378,-0.025 c -0.0144,-6.74275 -0.26186,-12.49527 -0.54996,-12.78337 C 334.23572,105.90239 334,111.66667 334,119 c 0,7.33333 0.24748,13.08585 0.54996,12.78337 0.30248,-0.30247 0.5382,-6.06676 0.52382,-12.80951 z M 344.25,105.29427 c -1.2375,-0.23836 -3.2625,-0.23836 -4.5,0 -1.2375,0.23835 -0.225,0.43337 2.25,0.43337 2.475,0 3.4875,-0.19502 2.25,-0.43337 z M 367,133.26416 c 0,-0.40471 2.32712,-7.17728 5.17138,-15.05015 l 5.17139,-14.31431 3.55596,0.30015 3.55597,0.30015 4.83906,13 c 2.66148,7.15 5.08665,13.7875 5.38928,14.75 0.46049,1.4646 -0.0953,1.75 -3.40812,1.75 -3.74896,0 -4.02148,-0.21072 -5.15189,-3.98368 C 383.54618,121.41554 373,122.06843 373,130.82874 373,133.6857 372.70267,134 370,134 c -1.65,0 -3,-0.33113 -3,-0.73584 z M 390.98888,131.25 c -0.006,-0.4125 -1.8189,-5.7 -4.0284,-11.75 -2.20949,-6.05 -4.24008,-11.62691 -4.51241,-12.39313 -0.27233,-0.76622 -0.72691,-1.16136 -1.01019,-0.87809 -0.28327,0.28327 1.11741,5.18518 3.11261,10.89313 1.99521,5.70795 3.86503,11.39059 4.15516,12.62809 0.48224,2.05692 2.30929,3.25723 2.28323,1.5 z m -9.03398,-12.5 c -0.0248,-0.6875 -0.6459,-2.6 -1.3802,-4.25 -1.39465,-3.13382 -1.3604,-3.16058 -3.52028,2.75 -0.95339,2.60898 -0.85235,2.75 1.97033,2.75 1.73759,0 2.95649,-0.51998 2.93015,-1.25 z M 428,132.87619 c 0,-0.91064 6.65322,-19.85983 9.54276,-27.17897 0.53268,-1.34928 1.58651,-1.72661 4.18921,-1.5 l 3.47748,0.30278 4.89527,13.46622 c 2.69241,7.40643 4.89528,14.04393 4.89528,14.75 0,0.79497 -1.30313,1.28378 -3.42245,1.28378 -3.02638,0 -3.55647,-0.4061 -4.58057,-3.50914 C 445.46475,125.84816 443.47248,124 440,124 c -3.81395,0 -6,2.39424 -6,6.57143 0,3.14286 -0.25,3.42857 -3,3.42857 -1.65,0 -3,-0.50571 -3,-1.12381 z M 451.74151,130.75 c -0.25986,-0.6875 -2.39415,-6.5375 -4.74286,-13 -2.34871,-6.4625 -4.61378,-11.75 -5.03349,-11.75 -0.41971,0 0.44192,3.2625 1.91474,7.25 1.47282,3.9875 3.54555,9.8375 4.60606,13 1.06052,3.1625 2.33317,5.75 2.82811,5.75 0.49495,0 0.6873,-0.5625 0.42744,-1.25 z m -9.69746,-14.5 C 441.20349,113.9125 440.28367,112 440,112 c -0.28367,0 -1.20349,1.9125 -2.04405,4.25 l -1.5283,4.25 H 440 443.57235 Z M 457,119 v -15 h 3.5 3.5 v 15 15 h -3.5 -3.5 z m 4.5,0.002 c 0,-7.14976 -0.3375,-13.00009 -0.75,-13.00074 C 460.3375,106.00053 460,111.85 460,119 c 0,7.15 0.3375,13.00033 0.75,13.00074 0.4125,4e-4 0.75,-5.84906 0.75,-12.99881 z M 466,119 v -15 l 3.75,0.0365 c 3.55509,0.0346 4.10474,0.51538 10.57502,9.25 l 6.82501,9.21349 -0.42483,-7 c -0.23366,-3.85 -0.7699,-8.0125 -1.19165,-9.25 -0.68709,-2.01607 -0.44278,-2.25 2.34982,-2.25 H 491 v 15 c 0,14.90014 -0.015,14.99975 -2.25,14.96201 -1.68629,-0.0285 -4.33381,-2.84703 -10.56732,-11.25 l -8.31731,-11.212 0.40243,9 c 0.22134,4.95 0.75412,10.0125 1.18395,11.25 0.70135,2.01921 0.46184,2.25 -2.33512,2.25 H 466 Z m 20.18824,6.97168 c -1.07527,-1.15417 -4.82001,-6.1074 -8.32164,-11.00719 -3.50163,-4.89979 -6.96124,-8.92126 -7.68803,-8.9366 -1.05442,-0.0222 -1.03777,0.25576 0.0824,1.37593 0.7721,0.7721 4.96172,6.18718 9.31026,12.03352 4.34854,5.84633 8.0562,10.1804 8.23925,9.63126 0.18304,-0.54914 -0.54696,-1.94275 -1.62223,-3.09692 z"
       id="path5"
       transform="translate(-48.146306,-292.76663)"
       clip-path="url(#clipPath6)"
       sodipodi:nodetypes="sssscsscsssscssssssscsssscsssscsscscsssssssssssssscsssssssssssssssssssssssssssssscssscsssssssssssssssssscssssssssssscssssssssssssssssscssssssssssssscssssssssssssssssssssscscsssssssssssssssssssssssssssssssssssssssscsscssssssssssssssscsccssccccsccccssssssssssssssssssccsssccsssssssssssscsscsscsssssssssscssscsscccsssscssccsssssssssssssssscssssscssssssssscsssssssssssssssscsscccssccssssssssssssscccsssssssssssscssssssssssssssssssssssssssssssssscssssscsscccssssssssscsssscsscsssssssccsccsccsssscsssssccccssssssscssscccsssssssssssssssssscssssscccsscssscscssssscssssssssscssssccccsssssssssssccccssssssscssssscsssssssscsssssssssssssssscscccscccccccccccsscccssscssscssscsssccsssssssss" />
  </g>
</svg>
