<?xml version="1.0" encoding="UTF-8" standalone="no"?>
<!-- Created with Inkscape (http://www.inkscape.org/) -->

<svg
   version="1.1"
   id="svg1"
   width="431.11035"
   height="182.30304"
   viewBox="0 0 431.11035 182.30304"
   sodipodi:docname="Text-Again-w-White-Counter-Spaces.svg"
   inkscape:version="1.4 (1:1.4+202410161351+e7c3feb100)"
   xmlns:inkscape="http://www.inkscape.org/namespaces/inkscape"
   xmlns:sodipodi="http://sodipodi.sourceforge.net/DTD/sodipodi-0.dtd"
   xmlns="http://www.w3.org/2000/svg"
   xmlns:svg="http://www.w3.org/2000/svg">
  <defs
     id="defs1">
    <clipPath
       clipPathUnits="userSpaceOnUse"
       id="clipPath1">
      <rect
         style="opacity:0.39;fill:#ffffff;fill-opacity:1;stroke:#0369a1;stroke-width:0.995134;stroke-linecap:round;paint-order:stroke fill markers"
         id="rect1"
         width="425.08084"
         height="173.81856"
         x="50.901787"
         y="297.05643" />
    </clipPath>
    <clipPath
       clipPathUnits="userSpaceOnUse"
       id="clipPath5">
      <rect
         style="display:inline;opacity:0.39;fill:#000000;stroke:#0369a1;stroke-width:1.03424;stroke-linecap:round;paint-order:stroke fill markers"
         id="rect5"
         width="430.07611"
         height="181.2688"
         x="0.51711947"
         y="0.51712245" />
    </clipPath>
    <clipPath
       clipPathUnits="userSpaceOnUse"
       id="clipPath6">
      <rect
         style="display:inline;opacity:0.39;fill:#000000;stroke:#0369a1;stroke-width:1.03424;stroke-linecap:round;paint-order:stroke fill markers"
         id="rect6"
         width="430.07611"
         height="181.2688"
         x="48.663425"
         y="293.28375" />
    </clipPath>
    <clipPath
       clipPathUnits="userSpaceOnUse"
       id="clipPath2">
      <g
         inkscape:groupmode="layer"
         id="g2"
         inkscape:label="RECT-GRAY"
         style="display:none" />
    </clipPath>
  </defs>
  <sodipodi:namedview
     id="namedview1"
     pagecolor="#505050"
     bordercolor="#ffffff"
     borderopacity="1"
     inkscape:showpageshadow="0"
     inkscape:pageopacity="0"
     inkscape:pagecheckerboard="1"
     inkscape:deskcolor="#505050"
     inkscape:zoom="1.3208477"
     inkscape:cx="168.83098"
     inkscape:cy="183.21568"
     inkscape:window-width="1910"
     inkscape:window-height="737"
     inkscape:window-x="1920"
     inkscape:window-y="767"
     inkscape:window-maximized="0"
     inkscape:current-layer="layer7"
     inkscape:export-bgcolor="#d4d4d400"
     showgrid="false">
    <inkscape:page
       x="0"
       y="0"
       width="431.11035"
       height="182.30304"
       id="page2"
       margin="0"
       bleed="0" />
  </sodipodi:namedview>
  <g
     inkscape:groupmode="layer"
     id="layer2"
     inkscape:label="Again"
     clip-path="url(#clipPath5)"
     style="display:inline">
    <path
       style="display:inline;fill:#38af34;fill-opacity:1"
       d="m 186.74052,469.63424 c -4.92931,-1.8423 -6.76382,-3.44883 -8.39542,-7.35212 -4.66245,-11.15399 2.67494,-22.76971 19.41727,-30.73924 4.2557,-2.02576 15.83641,-10.42333 16.66141,-10.84798 5.71887,-5.30596 1.41587,-12.71029 2.56155,-18.94799 -4.80959,7.12538 -11.72421,19.80823 -19.8668,23.86709 -4.59912,2.18242 -12.38464,1.42408 -15.50845,-1.51059 l -4.12143,-4.80554 -7.34152,11.10774 c -3.11261,4.70939 -7.81502,9.59052 -12.34355,12.66805 -8.43908,5.73509 -25.0115,3.44452 -29.16735,-7.18585 -5.297,-13.54939 -4.32834,-49.29009 -5.09988,-66.41829 -6.81548,1.4662 -13.98653,-1.56124 -20.68424,-0.96026 -1.36148,1.37147 -8.147802,21.05682 -15.464598,44.85877 -8.145262,26.497 -8.599141,27.5 -12.444322,27.5 -4.280039,0 -2.94319,0.16743 -2.94319,-2.15697 0,-2.87057 9.825192,-35.23655 16.480971,-54.29133 3.028727,-8.67093 5.246457,-16.02506 4.928289,-16.34252 -0.318168,-0.31747 -4.814303,-1.2331 -9.580266,-1.21246 -7.868806,0.0341 -6.265411,-1.20362 -16.948419,2.25391 -6.784766,2.19587 -8.78944,5.93342 -11.370457,5.44922 -5.355045,-1.00462 -4.802288,-2.3448 0.168157,-6.01961 8.606231,-6.36287 14.240819,-7.23471 29.777579,-7.46957 l 12.0919,-0.18279 c 3.880696,-10.90925 23.792246,-62.56924 23.921436,-62.69843 0.3151,-0.3151 3.16911,-0.7607 6.34224,-0.99022 4.53871,-0.3283 6.06685,-0.0589 7.16408,1.26323 2.21799,2.67252 6.25109,64.29002 8.04576,65.16479 1.48883,0.7257 5.26255,0.55661 10.9298,0.56449 11.42604,0.0159 13.89315,-2.41763 13.42559,0.82892 -0.4904,3.40525 -5.00088,6.94043 -15.12666,6.95657 -7.35946,0.0117 -8.6856,0.4572 -9.25,1.44873 -0.88824,1.56045 -0.23034,66.43789 11.25988,65.54974 2.45609,-0.18985 19.94977,-21.58336 19.17374,-25.53846 -1.47475,-7.51619 1.59501,-14.56642 2.71544,-18.99714 5.5763,-22.05125 19.01119,-36.78826 35.02309,-36.69589 3.71041,0.0214 10.05807,0.58142 10.65665,0.0846 7.90749,-4.02385 4.94376,0.0746 7.83652,1.0213 2.84804,0.9321 4.13472,11.43847 5.62751,32.97461 0.56673,8.17609 -2.54206,21.04504 0.83384,19.29497 11.49798,-5.96057 16.38458,-27.17058 21.07053,-37.56778 3.49986,-6.95187 8.54723,-12.28784 14.27315,-15.08928 5.08826,-2.48945 16.64287,-1.48656 29.44357,-2.52108 l 8.49086,-0.68621 c 3.33485,9.43152 3.85537,5.30853 2.51738,55.67809 -0.11006,4.14317 -0.54094,33.0715 9.06051,4.11208 9.82388,-29.63028 12.71465,-55.96722 13.98995,-65.59788 1.27531,-9.63066 16.40919,-2.89144 17.08003,-0.009 4.84941,20.83917 0.28683,80.35848 7.01196,67.41456 15.95944,-30.71734 16.73274,-43.11473 22.49036,-66.9535 0.39296,-1.627 1.20155,-5.99032 6.70127,-5.68819 4.70334,0.25838 7.49262,3.7584 7.52222,4.74341 0.37789,12.57451 -0.52556,15.85626 0.89914,23.07219 0.64385,3.26105 7.64411,-12.69965 13.7133,-16.46599 4.13962,-2.56892 4.05931,-2.74871 14.21596,-3.39544 18.11151,-0.91391 16.76091,19.12456 16.42608,31.82591 -0.97912,35.2488 0.80964,41.94802 4.37966,41.94802 3.26727,0 12.61743,-7.21426 19.85811,-26.17115 4.39141,-11.49721 1.38962,-12.28948 4.3303,-12.57794 5.43854,-0.53346 7.10396,1.87445 2.91601,12.00543 -7.65873,18.52706 -16.09754,32.6294 -23.23496,39.44851 -4.98441,4.76212 -14.24902,1.44578 -18.21142,-2.80736 -4.78659,-5.13779 -1.88392,-10.41897 -5.51882,-41.34551 -4.22013,-35.90581 -21.66113,-22.66207 -26.99921,-10.81031 -4.013,8.90978 -0.45993,47.54292 -5.77765,54.06031 -0.63704,0.78076 -3.66346,-1.16186 -7.76667,0.16116 -7.10746,2.29171 -7.06851,-16.92795 -6.72438,-28.02225 0.0286,-37.6024 -11.65063,17.14778 -25.68855,26.67767 -6.51243,4.42108 -13.01925,-7.24754 -15.88659,-18.45166 l 0.9029,-33.92117 -9.93162,35.58317 c -1.51033,5.41124 -5.94566,19.93982 -15.44238,19.0273 -6.36204,-0.61131 -10.64683,-0.29451 -14.00375,-7.01508 -2.82633,-5.6583 -4.15363,-18.85284 -4.18034,-26.91004 -0.0241,-7.26775 -5.42297,4.1012 -8.56353,9.46016 -6.39893,10.91893 -15.35873,13.88288 -23.02619,11.76579 -8.9835,-2.48046 -8.51686,-21.31398 -10.23382,-21.31398 -0.69378,0 -13.90339,14.11165 -14.60199,15.33102 -5.02958,19.47242 -11.38187,37.83809 -30.34091,47.87293 -5.77267,2.71348 -15.57905,3.49583 -20.54668,1.63922 z"
       id="path5"
       transform="translate(-48.146306,-292.76663)"
       clip-path="url(#clipPath6)"
       sodipodi:nodetypes="sssscsscssscsssssscsssscsscssscsssssssssssscsssssssssassssssssssssssscsssssssssss"
       inkscape:label="path-Again" />
  </g>
  <g
     inkscape:groupmode="layer"
     id="layer7"
     inkscape:label="Counter-Spaces"
     style="fill:#ffffff;fill-opacity:1">
    <g
       inkscape:groupmode="layer"
       id="layer1"
       inkscape:label="A-counter-space"
       style="display:inline;fill:#ffffff;fill-opacity:1" />
    <g
       inkscape:groupmode="layer"
       id="layer4"
       inkscape:label="a-counter-space"
       style="display:inline;fill:#ffffff;fill-opacity:1" />
    <g
       inkscape:groupmode="layer"
       id="layer3"
       inkscape:label="g-counter-space-top"
       style="display:inline;fill:#ffffff;fill-opacity:1" />
    <g
       inkscape:groupmode="layer"
       id="layer5"
       inkscape:label="g-counter-space-bottom"
       style="display:inline;fill:#ffffff;fill-opacity:1">
      <g
         id="g11"
         style="fill:#ffffff;fill-opacity:1">
        <path
           d="m 59.010641,67.872622 c 0.44919,-1.808 4.29262,-16.478321 7.13297,-23.819441 3.88855,-10.0503 6.964819,-18.194722 8.158839,-17.965642 -0.378096,13.70116 -0.201545,28.020148 0.201118,41.961367 -4.960578,0.05094 -8.720927,0.505957 -15.492927,-0.176284 z"
           style="display:inline;fill:#ffffff;fill-opacity:1"
           id="path1"
           sodipodi:nodetypes="csccc"
           inkscape:label="path-A-counter-space" />
        <path
           d="m 219.66012,117.71173 c -1.81817,-2.19075 -3.31922,-17.21327 -0.43775,-25.852756 2.62757,-7.87827 9.37107,-16.482311 13.22906,-18.477351 3.72806,-1.92786 11.10435,-3.565351 13.17115,-1.498561 3.15922,3.15923 1.35587,15.984843 -6.04157,34.341708 -10.12043,25.114 -16.05416,16.14609 -19.92089,11.48696 z"
           style="display:inline;fill:#ffffff;fill-opacity:1"
           id="path1-5"
           inkscape:label="path-a-counter-space"
           sodipodi:nodetypes="ssssss" />
        <path
           d="m 168.54209,69.677936 c 12.62527,5.11701 -8.20716,51.555234 -22.9005,56.397394 -14.04435,4.62829 5.26227,-63.546153 22.9005,-56.397394 z"
           style="display:inline;fill:#ffffff;fill-opacity:1;fill-rule:evenodd"
           id="path1-8"
           inkscape:label="path-G-top-counter-space-top"
           sodipodi:nodetypes="sss" />
        <path
           style="display:inline;opacity:1;fill:#ffffff;fill-opacity:1;fill-rule:evenodd;stroke:#165d8f;stroke-width:0.116875;stroke-linecap:round;stroke-opacity:1;paint-order:stroke fill markers"
           d="m 140.51656,172.82652 c -1.94146,0.28216 -5.7449,-4.89138 -5.8823,-7.36003 -0.60712,-10.90821 4.8182,-15.45571 11.41058,-19.72935 9.4723,-6.1406 20.89362,-12.49468 22.65937,-13.34775 0.973,-0.47009 -6.68435,37.31188 -28.18765,40.43713 z"
           id="path12"
           inkscape:label="path-g-counter-space-bottom"
           sodipodi:nodetypes="sssss" />
      </g>
    </g>
  </g>
  <g
     inkscape:groupmode="layer"
     id="layer6"
     inkscape:label="Dot">
    <ellipse
       style="display:inline;fill:#38af34;stroke-width:0.827384;stroke-linecap:round;paint-order:stroke fill markers"
       id="path2-3"
       cx="-307.33664"
       cy="29.442825"
       rx="9.9810715"
       ry="8.8294096"
       inkscape:label="path-Dot"
       transform="scale(-1,1)" />
  </g>
</svg>
