<?xml version="1.0" encoding="UTF-8" standalone="no"?>
<!-- Created with Inkscape (http://www.inkscape.org/) -->

<svg
   version="1.1"
   id="svg1"
   width="431.11035"
   height="182.30304"
   viewBox="0 0 431.11035 182.30304"
   sodipodi:docname="Text-Again-working04-removed-some-nodes-at-top-of-page.svg"
   inkscape:version="1.4 (1:1.4+202410161351+e7c3feb100)"
   xmlns:inkscape="http://www.inkscape.org/namespaces/inkscape"
   xmlns:sodipodi="http://sodipodi.sourceforge.net/DTD/sodipodi-0.dtd"
   xmlns="http://www.w3.org/2000/svg"
   xmlns:svg="http://www.w3.org/2000/svg">
  <defs
     id="defs1">
    <clipPath
       clipPathUnits="userSpaceOnUse"
       id="clipPath1">
      <rect
         style="opacity:0.39;fill:#ffffff;fill-opacity:1;stroke:#0369a1;stroke-width:0.995134;stroke-linecap:round;paint-order:stroke fill markers"
         id="rect1"
         width="425.08084"
         height="173.81856"
         x="50.901787"
         y="297.05643" />
    </clipPath>
    <clipPath
       clipPathUnits="userSpaceOnUse"
       id="clipPath5">
      <rect
         style="display:inline;opacity:0.39;fill:#000000;stroke:#0369a1;stroke-width:1.03424;stroke-linecap:round;paint-order:stroke fill markers"
         id="rect5"
         width="430.07611"
         height="181.2688"
         x="0.51711947"
         y="0.51712245" />
    </clipPath>
    <clipPath
       clipPathUnits="userSpaceOnUse"
       id="clipPath6">
      <rect
         style="display:inline;opacity:0.39;fill:#000000;stroke:#0369a1;stroke-width:1.03424;stroke-linecap:round;paint-order:stroke fill markers"
         id="rect6"
         width="430.07611"
         height="181.2688"
         x="48.663425"
         y="293.28375" />
    </clipPath>
    <clipPath
       clipPathUnits="userSpaceOnUse"
       id="clipPath2">
      <g
         inkscape:groupmode="layer"
         id="g2"
         inkscape:label="RECT-GRAY"
         style="display:none" />
    </clipPath>
  </defs>
  <sodipodi:namedview
     id="namedview1"
     pagecolor="#505050"
     bordercolor="#ffffff"
     borderopacity="1"
     inkscape:showpageshadow="0"
     inkscape:pageopacity="0"
     inkscape:pagecheckerboard="1"
     inkscape:deskcolor="#505050"
     inkscape:zoom="0.36539141"
     inkscape:cx="166.94426"
     inkscape:cy="-247.6796"
     inkscape:window-width="1920"
     inkscape:window-height="1030"
     inkscape:window-x="1920"
     inkscape:window-y="559"
     inkscape:window-maximized="1"
     inkscape:current-layer="layer2"
     inkscape:export-bgcolor="#d4d4d400"
     showgrid="false">
    <inkscape:page
       x="0"
       y="0"
       width="431.11035"
       height="182.30304"
       id="page2"
       margin="0"
       bleed="0" />
  </sodipodi:namedview>
  <g
     inkscape:groupmode="layer"
     id="layer2"
     inkscape:label="Again"
     clip-path="url(#clipPath5)"
     style="display:inline">
    <path
       style="display:inline;fill:#38af34;fill-opacity:1"
       d="m 186.74052,469.63424 c -4.92931,-1.8423 -6.76382,-3.44883 -8.39542,-7.35212 -4.66245,-11.15399 2.67494,-22.76971 19.41727,-30.73924 4.2557,-2.02576 8.41263,-4.03063 9.23763,-4.45528 5.71887,-5.30596 4.09668,-14.1538 5.24236,-20.3915 -4.80959,7.12538 -6.98124,14.85904 -15.12383,18.9179 -4.59912,2.18242 -12.38464,1.42408 -15.50845,-1.51059 l -2.32466,-2.1839 -4.79627,10.00027 c -6.07922,12.67524 -8.66768,15.26462 -15.85496,15.86065 -10.16849,0.84325 -17.51607,-3.64148 -22.65957,-13.8307 -6.57098,-13.01705 -13.18756,-36.00663 -16.00596,-55.61343 l -1.1735,-8.1637 -5.98881,-0.69508 c -3.29384,-0.38229 -6.37243,-0.30862 -6.84132,0.16371 C 104.60355,371.0127 97.817225,390.69805 90.500429,414.5 82.355167,440.997 81.901288,442 78.056107,442 73.776068,442 72,441.03546 72,438.71106 c 0,-2.87057 9.825192,-35.23655 16.480971,-54.29133 3.028727,-8.67093 5.246457,-16.02506 4.928289,-16.34252 -0.318168,-0.31747 -4.477911,-0.56032 -9.243874,-0.53968 -7.868806,0.0341 -9.431727,0.38754 -17.001819,3.84507 -6.486698,2.96271 -9.072432,3.66948 -11.653449,3.18528 -5.355045,-1.00462 -5.651265,-4.60874 -0.68082,-8.28355 8.606231,-6.36287 15.938773,-8.36668 31.475533,-8.60154 l 12.0919,-0.18279 8.297219,-21 c 4.56347,-11.55 9.62587,-24.76417 11.24978,-29.36481 1.62391,-4.60065 3.21036,-8.62262 3.52546,-8.93771 0.3151,-0.3151 3.16911,-0.7607 6.34224,-0.99022 4.53871,-0.3283 6.06685,-0.0589 7.16408,1.26323 0.9794,1.18011 2.17941,10.88541 4.02981,32.59189 1.44929,17.00125 2.82331,31.32382 3.26079,31.53706 1.48883,0.7257 5.26255,0.63214 10.9298,0.64 11.42604,0.0159 14.08233,0.80664 13.61477,4.05319 -0.4904,3.40525 -4.4349,4.67649 -14.56068,4.69263 -7.35946,0.0117 -9.25,0.30782 -9.25,1.44873 0,3.17714 5.64618,36.53978 7.62542,44.43943 2.91672,11.64141 5.38048,18.12658 6.3694,18.12658 0.99282,0 10.65977,-18.67942 15.40772,-29.77229 1.8475,-4.31642 4.27582,-11.47318 5.39625,-15.9039 5.5763,-22.05125 17.9152,-34.60202 33.9271,-34.50965 3.71041,0.0214 7.23596,-0.36753 7.83454,-0.86431 0.59859,-0.49679 4.21642,-1.19397 8.03963,-1.5493 5.64528,-0.52467 7.19563,-0.35166 8.25174,0.92088 1.9138,2.30598 3.06579,16.88116 3.5275,34.29298 0.21725,8.19283 -2.62603,16.62099 0.95048,15.32947 11.49798,-4.15206 12.18147,-19.9867 16.86742,-30.3839 3.49986,-6.95187 8.54723,-12.28784 14.27315,-15.08928 5.08826,-2.48945 6.53902,-2.69251 21.96811,-3.07482 l 16.52006,-0.40934 c 3.901,19.69366 -13.2465,112.14591 13.51601,51.76098 63.3914,-156.28764 11.70216,35.51245 34.51054,10.9935 19.57152,-21.03935 15.35768,-43.0898 21.1153,-66.92857 0.39296,-1.627 2.22679,-1.81245 7.73481,-1.81245 3.92819,0 7.93522,0.21499 7.96482,1.2 0.37789,12.57451 -1.06247,24.18804 0.36223,31.40397 0.64385,3.26105 3.61934,-4.03388 3.61934,-4.03388 9.65154,-17.44687 15.66868,-24.74927 25.82533,-25.396 6.31185,-0.40191 6.44614,-0.35633 10.29806,3.4956 5.7323,5.7323 6.63927,9.92528 6.12802,28.33031 -0.97912,35.2488 0.80964,41.94802 4.37966,41.94802 3.26727,0 9.295,-7.49113 16.53568,-26.44802 4.39141,-11.49721 4.71205,-12.01261 7.65273,-12.30107 5.43854,-0.53346 5.92361,1.46361 2.91601,12.00543 -5.44378,19.0808 -15.5438,36.22869 -23.23496,39.44851 -6.35889,2.66208 -14.24902,1.44578 -18.21142,-2.80736 -4.78659,-5.13779 -7.95298,-10.30138 -5.51882,-41.34551 3.06331,-39.06792 -3.02171,-33.27092 -10.76332,-24.35725 -3.01069,3.46651 -5.33378,10.07286 -6.8999,13.80033 -3.63222,8.64496 -9.12638,27.89556 -11.92047,41.76734 -1.19529,5.93427 -2.63222,11.35208 -3.19317,12.03958 -0.63704,0.78076 -3.61099,1.25 -7.92222,1.25 -6.48676,0 -6.96094,-0.15423 -7.87632,-2.56186 -0.53571,-1.40902 -1.27728,-5.79652 -1.64793,-9.75 l -0.67392,-7.18814 -2.22183,5.05379 c -4.01086,9.12314 -10.97687,13.34151 -19.83738,12.01279 -7.78428,-1.16732 -13.01925,-7.24754 -15.88659,-18.45166 l -1.31205,-5.12681 -6.72995,13.5071 c -9.81442,19.69766 -14.60957,28.95306 -24.10629,28.04054 -6.36204,-0.61131 -8.63108,-3.67316 -11.988,-10.39373 -2.82633,-5.6583 -5.76367,-19.77911 -5.79038,-27.83631 -0.0241,-7.26775 -1.26784,-8.01793 -4.4084,-2.65897 -6.39893,10.91893 -12.24238,14.5754 -19.90984,12.45831 -4.14446,-1.14434 -7.22568,-5.1168 -8.27483,-10.66835 -0.33781,-1.7875 0.68589,-3.25 -1.02219,-3.25 -0.69378,0 -16.82954,14.13089 -17.52814,15.35026 -0.36229,0.63235 -1.40173,4.07474 -2.30986,7.64974 -4.17038,16.41731 -15.6887,27.94184 -26.0417,32.80832 -5.77267,2.71348 -15.57905,3.49583 -20.54668,1.63922 z M 406.6193,133.96554 c -19.01014,-5.69189 -10.56321,-39.998448 14.1307,-28.50182 5.06554,2.35835 5.25,2.58639 5.25,6.49024 0,4.97982 -2.2107,5.47301 -4.51951,1.00827 -0.86398,-1.67075 0.76951,5.2274 0.76951,5.2274 l 3.75,-0.31036 v 7.66877 c 0,7.59122 -0.0242,7.6627 -2.39522,7.06761 -1.31737,-0.33063 -16.98548,1.34989 -16.98548,1.34989 z M 423,124.89301 c 0,-5.32114 -1.71479,-4.93823 -2.14931,0.47993 -0.2561,3.19349 -0.0135,4.2435 0.89931,3.89302 0.70375,-0.27021 1.25,-2.18117 1.25,-4.37295 z M 402.74489,128 c -354.598584,164.76663 -354.598584,164.76663 0,0 z M 367,133.26416 c 0,-0.40471 2.32712,-7.17728 5.17138,-15.05015 0,0 -5.17138,15.45486 -5.17138,15.05015 z M 390.98888,131.25 c -342.842574,161.51663 -342.842574,161.51663 0,0 z M 428,132.87619 c 0,-0.91064 6.65322,-19.85983 9.54276,-27.17897 0.53268,-1.34928 1.58651,-1.72661 4.18921,-1.5 l 3.47748,0.30278 4.89527,13.46622 c 2.69241,7.40643 4.89528,14.04393 4.89528,14.75 0,0.79497 -1.30313,1.28378 -3.42245,1.28378 -3.02638,0 -3.55647,-0.4061 -4.58057,-3.50914 C 445.46475,125.84816 443.47248,124 440,124 c -3.81395,0 -6,2.39424 -6,6.57143 0,3.14286 -0.25,3.42857 -3,3.42857 -1.65,0 -3,-0.50571 -3,-1.12381 z M 451.74151,130.75 c -0.25986,-0.6875 -2.39415,-6.5375 -4.74286,-13 -2.34871,-6.4625 -4.61378,-11.75 -5.03349,-11.75 -0.41971,0 0.44192,3.2625 1.91474,7.25 1.47282,3.9875 3.54555,9.8375 4.60606,13 1.06052,3.1625 2.33317,5.75 2.82811,5.75 0.49495,0 0.6873,-0.5625 0.42744,-1.25 z m -9.69746,-14.5 C 441.20349,113.9125 440.28367,112 440,112 c -0.28367,0 -1.20349,1.9125 -2.04405,4.25 l -1.5283,4.25 H 440 443.57235 Z M 457,119 v -15 h 3.5 3.5 v 15 15 h -3.5 -3.5 z m 4.5,0.002 c 0,-7.14976 -0.3375,-13.00009 -0.75,-13.00074 C 460.3375,106.00053 460,111.85 460,119 c 0,7.15 0.3375,13.00033 0.75,13.00074 0.4125,4e-4 0.75,-5.84906 0.75,-12.99881 z M 466,119 v -15 l 3.75,0.0365 c 3.55509,0.0346 4.10474,0.51538 10.57502,9.25 l 6.82501,9.21349 -0.42483,-7 c -0.23366,-3.85 -0.7699,-8.0125 -1.19165,-9.25 -0.68709,-2.01607 -0.44278,-2.25 2.34982,-2.25 H 491 v 15 c 0,14.90014 -0.015,14.99975 -2.25,14.96201 -1.68629,-0.0285 -4.33381,-2.84703 -10.56732,-11.25 l -8.31731,-11.212 0.40243,9 c 0.22134,4.95 0.75412,10.0125 1.18395,11.25 0.70135,2.01921 0.46184,2.25 -2.33512,2.25 H 466 Z m 20.18824,6.97168 c -1.07527,-1.15417 -4.82001,-6.1074 -8.32164,-11.00719 -3.50163,-4.89979 -6.96124,-8.92126 -7.68803,-8.9366 -1.05442,-0.0222 -1.03777,0.25576 0.0824,1.37593 0.7721,0.7721 4.96172,6.18718 9.31026,12.03352 4.34854,5.84633 8.0562,10.1804 8.23925,9.63126 0.18304,-0.54914 -0.54696,-1.94275 -1.62223,-3.09692 z"
       id="path5"
       transform="translate(-48.146306,-292.76663)"
       clip-path="url(#clipPath6)"
       sodipodi:nodetypes="sssscsscsssscssssssscsssscsssscsscscsssssssssssssscsssssssssssssssssssssssscssscsssssssssssssssssccssssssssscccsssscsssssssssssssssscscccscccccccccccsscccssscssscssscsssccsssssssss"
       inkscape:label="path-Again" />
  </g>
  <g
     inkscape:groupmode="layer"
     id="layer1"
     inkscape:label="A-counter-space">
    <path
       d="m 62.111311,60.957025 c 0.44919,-1.808 2.32392,-6.7328 5.16427,-14.07392 3.88855,-10.0503 5.55598,-13.27232 6.75,-13.04324 1.34686,0.25842 1.62742,2.52422 1.86246,15.04169 l 0.27674,14.73745 -4.77674,-0.0634 c -2.6272,-0.0349 -5.78923,-0.47036 -7.02673,-0.96777 z"
       style="display:inline;fill:#165d8f;fill-opacity:1"
       id="path1"
       sodipodi:nodetypes="cscscccc"
       inkscape:label="path-A-counter-space" />
  </g>
  <g
     inkscape:groupmode="layer"
     id="layer4"
     inkscape:label="a-counter-space"
     style="display:inline">
    <path
       d="m 215.48854,116.59084 c -1.81817,-2.19075 -0.0927,-15.81551 2.78877,-24.454997 2.62757,-7.87827 9.29785,-16.75918 13.15584,-18.75422 3.72806,-1.92786 7.38389,-1.8402 9.45069,0.22659 3.15922,3.15923 2.43885,6.8232 -6.28647,24.58736 -12.33538,25.113997 -15.2421,23.054397 -19.10883,18.395267 z"
       style="display:inline;fill:#165d8f;fill-opacity:1"
       id="path1-5"
       inkscape:label="path-a-counter-space" />
  </g>
  <g
     inkscape:groupmode="layer"
     id="layer3"
     inkscape:label="g-counter-space-top"
     style="display:inline">
    <path
       d="m 161.6111,74.734788 c 7.54865,5.13244 -9.48344,39.676132 -18.47731,48.654352 -10.57568,10.55728 0.86743,-60.627553 18.47731,-48.654352 z"
       style="display:inline;fill:#165d8f;fill-opacity:1;fill-rule:evenodd"
       id="path1-8"
       inkscape:label="path-G-top-counter-space-top" />
  </g>
  <g
     inkscape:groupmode="layer"
     id="layer5"
     inkscape:label="g-counter-space-bottom"
     style="display:inline">
    <path
       style="display:inline;opacity:1;fill:#165d8f;fill-opacity:1;fill-rule:evenodd;stroke:#165d8f;stroke-width:0.116875;stroke-linecap:round;stroke-opacity:1;paint-order:stroke fill markers"
       d="m 144.80597,166.65101 c -1.89421,-0.51074 -3.05576,-2.17532 -3.23853,-4.64103 -0.16185,-2.18345 0.10238,-3.4937 1.11449,-5.52662 1.02994,-2.0687 2.60772,-4.13402 4.77561,-6.25128 2.40761,-2.35138 4.53857,-3.7004 8.79244,-5.56613 4.93755,-2.16558 12.78475,-4.99054 14.24621,-5.12857 0.90664,-0.0856 1.15708,0.0684 1.15708,0.7117 0,0.91211 -0.58726,2.28768 -3.4435,8.06588 -4.41887,8.93942 -6.90604,12.56119 -10.50114,15.2916 -0.94316,0.71631 -3.26274,1.8446 -4.5471,2.2118 -2.72479,0.77902 -6.98129,1.20319 -8.35556,0.83265 z"
       id="path12"
       inkscape:label="path-g-counter-space-bottom" />
  </g>
</svg>
