<?xml version="1.0" encoding="UTF-8" standalone="no"?>
<!-- Created with Inkscape (http://www.inkscape.org/) -->

<svg
   version="1.1"
   id="svg1"
   width="431.11035"
   height="182.30304"
   viewBox="0 0 431.11035 182.30304"
   sodipodi:docname="Text-Again-working05-working-on-final-path.svg"
   inkscape:version="1.4 (1:1.4+202410161351+e7c3feb100)"
   xmlns:inkscape="http://www.inkscape.org/namespaces/inkscape"
   xmlns:sodipodi="http://sodipodi.sourceforge.net/DTD/sodipodi-0.dtd"
   xmlns="http://www.w3.org/2000/svg"
   xmlns:svg="http://www.w3.org/2000/svg">
  <defs
     id="defs1">
    <clipPath
       clipPathUnits="userSpaceOnUse"
       id="clipPath1">
      <rect
         style="opacity:0.39;fill:#ffffff;fill-opacity:1;stroke:#0369a1;stroke-width:0.995134;stroke-linecap:round;paint-order:stroke fill markers"
         id="rect1"
         width="425.08084"
         height="173.81856"
         x="50.901787"
         y="297.05643" />
    </clipPath>
    <clipPath
       clipPathUnits="userSpaceOnUse"
       id="clipPath5">
      <rect
         style="display:inline;opacity:0.39;fill:#000000;stroke:#0369a1;stroke-width:1.03424;stroke-linecap:round;paint-order:stroke fill markers"
         id="rect5"
         width="430.07611"
         height="181.2688"
         x="0.51711947"
         y="0.51712245" />
    </clipPath>
    <clipPath
       clipPathUnits="userSpaceOnUse"
       id="clipPath6">
      <rect
         style="display:inline;opacity:0.39;fill:#000000;stroke:#0369a1;stroke-width:1.03424;stroke-linecap:round;paint-order:stroke fill markers"
         id="rect6"
         width="430.07611"
         height="181.2688"
         x="48.663425"
         y="293.28375" />
    </clipPath>
    <clipPath
       clipPathUnits="userSpaceOnUse"
       id="clipPath2">
      <g
         inkscape:groupmode="layer"
         id="g2"
         inkscape:label="RECT-GRAY"
         style="display:none" />
    </clipPath>
  </defs>
  <sodipodi:namedview
     id="namedview1"
     pagecolor="#505050"
     bordercolor="#ffffff"
     borderopacity="1"
     inkscape:showpageshadow="0"
     inkscape:pageopacity="0"
     inkscape:pagecheckerboard="1"
     inkscape:deskcolor="#505050"
     inkscape:zoom="1.997694"
     inkscape:cx="215.74876"
     inkscape:cy="87.851293"
     inkscape:window-width="1920"
     inkscape:window-height="1030"
     inkscape:window-x="1920"
     inkscape:window-y="559"
     inkscape:window-maximized="1"
     inkscape:current-layer="layer1"
     inkscape:export-bgcolor="#d4d4d400"
     showgrid="false">
    <inkscape:page
       x="0"
       y="0"
       width="431.11035"
       height="182.30304"
       id="page2"
       margin="0"
       bleed="0" />
  </sodipodi:namedview>
  <g
     inkscape:groupmode="layer"
     id="layer2"
     inkscape:label="Again"
     clip-path="url(#clipPath5)"
     style="display:inline">
    <path
       style="display:inline;fill:#38af34;fill-opacity:1"
       d="m 186.74052,469.63424 c -4.92931,-1.8423 -6.76382,-3.44883 -8.39542,-7.35212 -4.66245,-11.15399 2.67494,-22.76971 19.41727,-30.73924 4.2557,-2.02576 15.83641,-10.42333 16.66141,-10.84798 5.71887,-5.30596 1.41587,-12.71029 2.56155,-18.94799 -4.80959,7.12538 -11.72421,19.80823 -19.8668,23.86709 -4.59912,2.18242 -12.38464,1.42408 -15.50845,-1.51059 l -2.73709,-3.4212 -7.06465,10.00027 c -3.25714,4.61061 -8.64562,14.02042 -13.17415,17.09795 -8.43908,5.73509 -20.28012,-2.66763 -22.65957,-13.8307 -9.07694,-42.58406 -6.44803,-47.06623 -10.50019,-64.48021 l -12.66808,0.008 c -3.31595,0.002 -6.37243,-0.30862 -6.84132,0.16371 C 104.60355,371.0127 97.817225,390.69805 90.500429,414.5 82.355167,440.997 81.901288,442 78.056107,442 73.776068,442 72,441.03546 72,438.71106 c 0,-2.87057 9.825192,-35.23655 16.480971,-54.29133 3.028727,-8.67093 5.246457,-16.02506 4.928289,-16.34252 -0.318168,-0.31747 -4.477911,-0.56032 -9.243874,-0.53968 -7.868806,0.0341 -9.431727,0.38754 -17.001819,3.84507 -6.486698,2.96271 -9.072432,3.66948 -11.653449,3.18528 -5.355045,-1.00462 -5.651265,-4.60874 -0.68082,-8.28355 8.606231,-6.36287 15.938773,-8.36668 31.475533,-8.60154 l 12.0919,-0.18279 8.297219,-21 c 4.56347,-11.55 9.62587,-24.76417 11.24978,-29.36481 1.62391,-4.60065 3.21036,-8.62262 3.52546,-8.93771 0.3151,-0.3151 3.16911,-0.7607 6.34224,-0.99022 4.53871,-0.3283 6.06685,-0.0589 7.16408,1.26323 0.9794,1.18011 2.17941,10.88541 4.02981,32.59189 1.44929,17.00125 3.57847,28.68076 4.01595,28.894 1.48883,0.7257 5.26255,0.55661 10.9298,0.56449 11.42604,0.0159 13.32717,3.52521 12.85961,6.77176 -0.4904,3.40525 -4.4349,4.67649 -14.56068,4.69263 -7.35946,0.0117 -9.25,0.30782 -9.25,1.44873 0,3.17714 2.55294,35.92113 4.53218,43.82078 2.91672,11.64141 3.02481,16.77055 7.40048,16.68307 2.46293,-0.0492 19.27699,-16.53747 18.50096,-20.49257 -1.47475,-7.51619 1.59501,-14.56642 2.71544,-18.99714 5.5763,-22.05125 19.56493,-38.72634 35.57683,-38.63397 3.71041,0.0214 9.50433,2.5195 10.10291,2.02272 7.90749,-4.02385 4.94376,0.0746 7.83652,1.0213 2.84804,0.9321 7.18028,11.43847 8.67307,32.97461 0.56673,8.17609 -3.39243,21.59329 0.18408,20.30177 11.49798,-4.15206 13.98878,-28.17738 18.67473,-38.57458 3.49986,-6.95187 8.54723,-12.28784 14.27315,-15.08928 5.08826,-2.48945 6.53902,-2.69251 21.96811,-3.07482 l 16.52006,-0.40934 c 3.901,19.69366 -11.22426,113.00223 13.51601,51.76098 23.38544,-57.88756 21.03071,-66.78713 30.82916,-65.42796 9.79846,1.35917 -8.06907,76.90807 3.33512,64.64859 19.57153,-21.03934 18.15858,-32.22127 23.9162,-56.06004 0.39296,-1.627 1.20155,-5.99032 6.70127,-5.68819 4.70334,0.25838 4.44706,4.86588 4.47666,5.85089 0.37789,12.57451 -1.79086,33.63538 -0.36616,40.85131 0.64385,3.26105 6.36566,-18.04413 12.48678,-25.10844 5.23988,-6.04728 9.59669,-12.99286 19.75334,-13.63959 6.31185,-0.40191 5.41261,0.28963 10.29806,3.4956 6.77765,4.44769 6.63927,9.92528 6.12802,28.33031 -0.97912,35.2488 0.80964,41.94802 4.37966,41.94802 3.26727,0 9.295,-7.49113 16.53568,-26.44802 4.39141,-11.49721 4.71205,-12.01261 7.65273,-12.30107 5.43854,-0.53346 5.92361,1.46361 2.91601,12.00543 -5.44378,19.0808 -15.5438,36.22869 -23.23496,39.44851 -6.35889,2.66208 -14.24902,1.44578 -18.21142,-2.80736 -4.78659,-5.13779 -7.95298,-10.30138 -5.51882,-41.34551 3.06331,-39.06792 -3.02171,-33.27092 -10.76332,-24.35725 -3.01069,3.46651 -5.33378,10.07286 -6.8999,13.80033 -3.63222,8.64496 -9.12638,27.89556 -11.92047,41.76734 -1.19529,5.93427 -2.63222,11.35208 -3.19317,12.03958 -0.63704,0.78076 -3.45544,0.16116 -7.76667,0.16116 -14.58292,1.18423 -7.06851,-16.92795 -6.72438,-28.02225 0.0286,-37.6024 -11.65063,17.14778 -25.68855,26.67767 -6.51243,4.42108 -13.01925,-7.24754 -15.88659,-18.45166 l -1.31205,-5.12681 -6.72995,13.5071 c -9.81442,19.69766 -14.60957,28.95306 -24.10629,28.04054 -6.36204,-0.61131 -8.63108,-3.67316 -11.988,-10.39373 -2.82633,-5.6583 1.50781,-31.20572 1.4811,-39.26292 -0.0241,-7.26775 -5.42297,4.1012 -8.56353,9.46016 -6.39893,10.91893 -15.35873,13.88288 -23.02619,11.76579 -4.14446,-1.14434 -7.22568,-5.1168 -8.27483,-10.66835 -0.33781,-1.7875 0.68589,-3.25 -1.02219,-3.25 -0.69378,0 -16.82954,14.13089 -17.52814,15.35026 -0.36229,0.63235 -1.40173,4.07474 -2.30986,7.64974 -4.17038,16.41731 -15.6887,27.94184 -26.0417,32.80832 -5.77267,2.71348 -15.57905,3.49583 -20.54668,1.63922 z M 406.6193,133.96554 c -19.01014,-5.69189 -10.56321,-39.998448 14.1307,-28.50182 5.06554,2.35835 5.25,2.58639 5.25,6.49024 0,4.97982 -2.2107,5.47301 -4.51951,1.00827 -0.86398,-1.67075 0.76951,5.2274 0.76951,5.2274 l 3.75,-0.31036 v 7.66877 c 0,7.59122 -0.0242,7.6627 -2.39522,7.06761 -1.31737,-0.33063 -16.98548,1.34989 -16.98548,1.34989 z M 423,124.89301 c 0,-5.32114 -1.71479,-4.93823 -2.14931,0.47993 -0.2561,3.19349 -0.0135,4.2435 0.89931,3.89302 0.70375,-0.27021 1.25,-2.18117 1.25,-4.37295 z M 402.74489,128 c -354.598584,164.76663 -354.598584,164.76663 0,0 z M 367,133.26416 c 0,-0.40471 2.32712,-7.17728 5.17138,-15.05015 0,0 -5.17138,15.45486 -5.17138,15.05015 z M 390.98888,131.25 c -342.842574,161.51663 -342.842574,161.51663 0,0 z M 428,132.87619 c 0,-0.91064 6.65322,-19.85983 9.54276,-27.17897 0.53268,-1.34928 1.58651,-1.72661 4.18921,-1.5 l 3.47748,0.30278 4.89527,13.46622 c 2.69241,7.40643 4.89528,14.04393 4.89528,14.75 0,0.79497 -1.30313,1.28378 -3.42245,1.28378 -3.02638,0 -3.55647,-0.4061 -4.58057,-3.50914 C 445.46475,125.84816 443.47248,124 440,124 c -3.81395,0 -6,2.39424 -6,6.57143 0,3.14286 -0.25,3.42857 -3,3.42857 -1.65,0 -3,-0.50571 -3,-1.12381 z M 451.74151,130.75 c -0.25986,-0.6875 -2.39415,-6.5375 -4.74286,-13 -2.34871,-6.4625 -4.61378,-11.75 -5.03349,-11.75 -0.41971,0 0.44192,3.2625 1.91474,7.25 1.47282,3.9875 3.54555,9.8375 4.60606,13 1.06052,3.1625 2.33317,5.75 2.82811,5.75 0.49495,0 0.6873,-0.5625 0.42744,-1.25 z m -9.69746,-14.5 C 441.20349,113.9125 440.28367,112 440,112 c -0.28367,0 -1.20349,1.9125 -2.04405,4.25 l -1.5283,4.25 H 440 443.57235 Z M 457,119 v -15 h 3.5 3.5 v 15 15 h -3.5 -3.5 z m 4.5,0.002 c 0,-7.14976 -0.3375,-13.00009 -0.75,-13.00074 C 460.3375,106.00053 460,111.85 460,119 c 0,7.15 0.3375,13.00033 0.75,13.00074 0.4125,4e-4 0.75,-5.84906 0.75,-12.99881 z M 466,119 v -15 l 3.75,0.0365 c 3.55509,0.0346 4.10474,0.51538 10.57502,9.25 l 6.82501,9.21349 -0.42483,-7 c -0.23366,-3.85 -0.7699,-8.0125 -1.19165,-9.25 -0.68709,-2.01607 -0.44278,-2.25 2.34982,-2.25 H 491 v 15 c 0,14.90014 -0.015,14.99975 -2.25,14.96201 -1.68629,-0.0285 -4.33381,-2.84703 -10.56732,-11.25 l -8.31731,-11.212 0.40243,9 c 0.22134,4.95 0.75412,10.0125 1.18395,11.25 0.70135,2.01921 0.46184,2.25 -2.33512,2.25 H 466 Z m 20.18824,6.97168 c -1.07527,-1.15417 -4.82001,-6.1074 -8.32164,-11.00719 -3.50163,-4.89979 -6.96124,-8.92126 -7.68803,-8.9366 -1.05442,-0.0222 -1.03777,0.25576 0.0824,1.37593 0.7721,0.7721 4.96172,6.18718 9.31026,12.03352 4.34854,5.84633 8.0562,10.1804 8.23925,9.63126 0.18304,-0.54914 -0.54696,-1.94275 -1.62223,-3.09692 z"
       id="path5"
       transform="translate(-48.146306,-292.76663)"
       clip-path="url(#clipPath6)"
       sodipodi:nodetypes="sssscsscssscssssssscsssscsssscsssscssssssssssssscszsssssasssssssssssssssssscsssssssssssssssssccssssssssscccsssscsssssssssssssssscscccscccccccccccsscccssscssscssscsssccsssssssss"
       inkscape:label="path-Again" />
    <ellipse
       style="fill:#38af34;stroke-width:0.827384;stroke-linecap:round;paint-order:stroke fill markers"
       id="path2"
       cx="311.11041"
       cy="32.064697"
       rx="9.9810715"
       ry="8.8294096" />
  </g>
  <g
     inkscape:groupmode="layer"
     id="layer1"
     inkscape:label="A-counter-space">
    <path
       d="m 62.111311,60.957025 c 0.44919,-1.808 2.32392,-6.7328 5.16427,-14.07392 3.88855,-10.0503 5.55598,-13.27232 6.75,-13.04324 1.34686,0.25842 1.62742,2.52422 1.86246,15.04169 l 0.27674,14.73745 -4.77674,-0.0634 c -2.6272,-0.0349 -5.78923,-0.47036 -7.02673,-0.96777 z"
       style="display:inline;fill:#165d8f;fill-opacity:1"
       id="path1"
       sodipodi:nodetypes="cscscccc"
       inkscape:label="path-A-counter-space" />
  </g>
  <g
     inkscape:groupmode="layer"
     id="layer4"
     inkscape:label="a-counter-space"
     style="display:inline">
    <path
       d="m 215.48854,116.59084 c -1.81817,-2.19075 -0.0927,-15.81551 2.78877,-24.454997 2.62757,-7.87827 9.29785,-16.75918 13.15584,-18.75422 3.72806,-1.92786 7.38389,-1.8402 9.45069,0.22659 3.15922,3.15923 2.43885,6.8232 -6.28647,24.58736 -12.33538,25.113997 -15.2421,23.054397 -19.10883,18.395267 z"
       style="display:inline;fill:#165d8f;fill-opacity:1"
       id="path1-5"
       inkscape:label="path-a-counter-space" />
  </g>
  <g
     inkscape:groupmode="layer"
     id="layer3"
     inkscape:label="g-counter-space-top"
     style="display:inline">
    <path
       d="m 161.6111,74.734788 c 7.54865,5.13244 -9.48344,39.676132 -18.47731,48.654352 -10.57568,10.55728 0.86743,-60.627553 18.47731,-48.654352 z"
       style="display:inline;fill:#165d8f;fill-opacity:1;fill-rule:evenodd"
       id="path1-8"
       inkscape:label="path-G-top-counter-space-top" />
  </g>
  <g
     inkscape:groupmode="layer"
     id="layer5"
     inkscape:label="g-counter-space-bottom"
     style="display:inline">
    <path
       style="display:inline;opacity:1;fill:#165d8f;fill-opacity:1;fill-rule:evenodd;stroke:#165d8f;stroke-width:0.116875;stroke-linecap:round;stroke-opacity:1;paint-order:stroke fill markers"
       d="m 139.09097,172.62286 c -1.89421,-0.51074 -5.54124,-4.48406 -5.67864,-6.95271 -0.60712,-10.90821 6.04013,-15.65937 12.63251,-19.93301 9.4723,-6.1406 20.89362,-12.49468 22.65937,-13.34775 0.973,-0.47009 -7.29532,42.19961 -29.61324,40.23347 z"
       id="path12"
       inkscape:label="path-g-counter-space-bottom"
       sodipodi:nodetypes="sssss" />
  </g>
</svg>
