<?xml version="1.0" encoding="UTF-8" standalone="no"?>
<!-- Created with Inkscape (http://www.inkscape.org/) -->

<svg
   version="1.1"
   id="svg1"
   width="431.11035"
   height="182.30304"
   viewBox="0 0 431.11035 182.30304"
   sodipodi:docname="Text-Again-working06-removing-more-surrounding-barnacles.svg"
   inkscape:version="1.4 (1:1.4+202410161351+e7c3feb100)"
   xmlns:inkscape="http://www.inkscape.org/namespaces/inkscape"
   xmlns:sodipodi="http://sodipodi.sourceforge.net/DTD/sodipodi-0.dtd"
   xmlns="http://www.w3.org/2000/svg"
   xmlns:svg="http://www.w3.org/2000/svg">
  <defs
     id="defs1">
    <clipPath
       clipPathUnits="userSpaceOnUse"
       id="clipPath1">
      <rect
         style="opacity:0.39;fill:#ffffff;fill-opacity:1;stroke:#0369a1;stroke-width:0.995134;stroke-linecap:round;paint-order:stroke fill markers"
         id="rect1"
         width="425.08084"
         height="173.81856"
         x="50.901787"
         y="297.05643" />
    </clipPath>
    <clipPath
       clipPathUnits="userSpaceOnUse"
       id="clipPath5">
      <rect
         style="display:inline;opacity:0.39;fill:#000000;stroke:#0369a1;stroke-width:1.03424;stroke-linecap:round;paint-order:stroke fill markers"
         id="rect5"
         width="430.07611"
         height="181.2688"
         x="0.51711947"
         y="0.51712245" />
    </clipPath>
    <clipPath
       clipPathUnits="userSpaceOnUse"
       id="clipPath6">
      <rect
         style="display:inline;opacity:0.39;fill:#000000;stroke:#0369a1;stroke-width:1.03424;stroke-linecap:round;paint-order:stroke fill markers"
         id="rect6"
         width="430.07611"
         height="181.2688"
         x="48.663425"
         y="293.28375" />
    </clipPath>
    <clipPath
       clipPathUnits="userSpaceOnUse"
       id="clipPath2">
      <g
         inkscape:groupmode="layer"
         id="g2"
         inkscape:label="RECT-GRAY"
         style="display:none" />
    </clipPath>
  </defs>
  <sodipodi:namedview
     id="namedview1"
     pagecolor="#505050"
     bordercolor="#ffffff"
     borderopacity="1"
     inkscape:showpageshadow="0"
     inkscape:pageopacity="0"
     inkscape:pagecheckerboard="1"
     inkscape:deskcolor="#505050"
     inkscape:zoom="0.91612437"
     inkscape:cx="454.08682"
     inkscape:cy="-12.007103"
     inkscape:window-width="1910"
     inkscape:window-height="737"
     inkscape:window-x="1920"
     inkscape:window-y="767"
     inkscape:window-maximized="0"
     inkscape:current-layer="layer4"
     inkscape:export-bgcolor="#d4d4d400"
     showgrid="false">
    <inkscape:page
       x="0"
       y="0"
       width="431.11035"
       height="182.30304"
       id="page2"
       margin="0"
       bleed="0" />
  </sodipodi:namedview>
  <g
     inkscape:groupmode="layer"
     id="layer2"
     inkscape:label="Again"
     clip-path="url(#clipPath5)"
     style="display:inline">
    <path
       style="display:inline;fill:#38af34;fill-opacity:1"
       d="m 186.74052,469.63424 c -4.92931,-1.8423 -6.76382,-3.44883 -8.39542,-7.35212 -4.66245,-11.15399 2.67494,-22.76971 19.41727,-30.73924 4.2557,-2.02576 15.83641,-10.42333 16.66141,-10.84798 5.71887,-5.30596 1.41587,-12.71029 2.56155,-18.94799 -4.80959,7.12538 -11.72421,19.80823 -19.8668,23.86709 -4.59912,2.18242 -12.38464,1.42408 -15.50845,-1.51059 l -4.12143,-4.80554 -7.34152,11.10774 c -3.11261,4.70939 -7.81502,9.59052 -12.34355,12.66805 -8.43908,5.73509 -24.17169,3.91827 -26.8126,-7.18585 -10.34289,-43.48831 -7.01948,-48.28091 -7.45463,-66.41829 l -10.73,0.008 c -3.31595,0.002 -9.48535,-1.44059 -9.95424,-0.96826 -1.36148,1.37147 -8.147802,21.05682 -15.464598,44.85877 -8.145262,26.497 -8.599141,27.5 -12.444322,27.5 -4.280039,0 -2.94319,0.16743 -2.94319,-2.15697 0,-2.87057 9.825192,-35.23655 16.480971,-54.29133 3.028727,-8.67093 5.246457,-16.02506 4.928289,-16.34252 -0.318168,-0.31747 -4.477911,-0.56032 -9.243874,-0.53968 -7.868806,0.0341 -6.601803,-1.8764 -17.284811,1.58113 -6.784766,2.19587 -8.78944,5.93342 -11.370457,5.44922 -5.355045,-1.00462 -4.802288,-2.3448 0.168157,-6.01961 8.606231,-6.36287 14.240819,-7.23471 29.777579,-7.46957 l 12.0919,-0.18279 L 106.69395,336.5 c 4.3596,-11.62848 9.62587,-24.76417 11.24978,-29.36481 1.62391,-4.60065 3.21036,-8.62262 3.52546,-8.93771 0.3151,-0.3151 3.16911,-0.7607 6.34224,-0.99022 4.53871,-0.3283 6.06685,-0.0589 7.16408,1.26323 0.9794,1.18011 2.17941,10.88541 4.02981,32.59189 1.44929,17.00125 3.57847,32.35966 4.01595,32.5729 1.48883,0.7257 5.26255,0.55661 10.9298,0.56449 11.42604,0.0159 13.89315,-2.41763 13.42559,0.82892 -0.4904,3.40525 -5.00088,6.94043 -15.12666,6.95657 -7.35946,0.0117 -8.6856,0.4572 -9.25,1.44873 -1.8085,3.17714 1.10614,35.37858 3.08538,43.27823 2.91672,11.64141 5.37586,17.49395 8.84728,17.22562 2.45609,-0.18985 19.27699,-16.53747 18.50096,-20.49257 -1.47475,-7.51619 1.59501,-14.56642 2.71544,-18.99714 5.5763,-22.05125 19.01119,-36.78826 35.02309,-36.69589 3.71041,0.0214 10.05807,0.58142 10.65665,0.0846 7.90749,-4.02385 4.94376,0.0746 7.83652,1.0213 2.84804,0.9321 4.13472,11.43847 5.62751,32.97461 0.56673,8.17609 -2.54206,21.04504 0.83384,19.29497 11.49798,-5.96057 16.38458,-27.17058 21.07053,-37.56778 3.49986,-6.95187 8.54723,-12.28784 14.27315,-15.08928 5.08826,-2.48945 16.64287,-1.48656 29.44357,-2.52108 l 8.49086,-0.68621 c 3.33485,9.43152 3.85537,5.79155 2.51738,55.67809 -0.11112,4.14314 -0.54094,33.0715 9.06051,4.11208 19.64775,-59.26056 2.4805,-76.7544 25.01492,-64.59735 22.53441,12.15705 2.97797,85.06797 9.7031,72.12405 15.95944,-30.71734 20.09666,-48.8334 25.85428,-72.67217 0.39296,-1.627 1.20155,-5.99032 6.70127,-5.68819 4.70334,0.25838 7.49262,3.7584 7.52222,4.74341 0.37789,12.57451 0.14722,16.19265 1.57192,23.40858 0.64385,3.26105 7.08175,-12.9609 13.04052,-16.80238 4.09478,-2.63981 4.05931,-2.74871 14.21596,-3.39544 6.31185,-0.40191 5.41261,0.28963 10.29806,3.4956 6.77765,4.44769 6.63927,9.92528 6.12802,28.33031 -0.97912,35.2488 0.80964,41.94802 4.37966,41.94802 3.26727,0 12.61743,-7.21426 19.85811,-26.17115 4.39141,-11.49721 1.38962,-12.28948 4.3303,-12.57794 5.43854,-0.53346 7.10396,1.87445 2.91601,12.00543 -7.65873,18.52706 -16.09754,32.6294 -23.23496,39.44851 -4.98441,4.76212 -14.24902,1.44578 -18.21142,-2.80736 -4.78659,-5.13779 -7.95298,-10.30138 -5.51882,-41.34551 3.06331,-39.06792 -6.89787,-37.42395 -14.63948,-28.51028 -3.01069,3.46651 -8.10247,7.58104 -9.66859,11.30851 -3.63222,8.64496 -2.48153,34.54041 -5.27562,48.41219 -1.19529,5.93427 -2.63222,11.35208 -3.19317,12.03958 -0.63704,0.78076 -3.66346,-1.16186 -7.76667,0.16116 -7.10746,2.29171 -7.06851,-16.92795 -6.72438,-28.02225 0.0286,-37.6024 -11.65063,17.14778 -25.68855,26.67767 -6.51243,4.42108 -13.01925,-7.24754 -15.88659,-18.45166 l 0.9029,-33.92117 -9.93162,35.58317 c -1.51033,5.41124 -5.94566,19.93982 -15.44238,19.0273 -6.36204,-0.61131 -10.64683,-0.29451 -14.00375,-7.01508 -2.82633,-5.6583 -4.15363,-18.85284 -4.18034,-26.91004 -0.0241,-7.26775 -5.42297,4.1012 -8.56353,9.46016 -6.39893,10.91893 -15.35873,13.88288 -23.02619,11.76579 -8.9835,-2.48046 -8.51686,-18.95923 -10.23382,-18.95923 -0.69378,0 -13.90339,11.7569 -14.60199,12.97627 -0.36229,0.63235 -3.39108,11.48961 -4.29921,15.06461 -4.17038,16.41731 -15.6887,27.94184 -26.0417,32.80832 -5.77267,2.71348 -15.57905,3.49583 -20.54668,1.63922 z M 406.6193,133.96554 c -19.01014,-5.69189 -10.56321,-39.998448 14.1307,-28.50182 5.06554,2.35835 5.25,2.58639 5.25,6.49024 0,4.97982 -2.2107,5.47301 -4.51951,1.00827 -0.86398,-1.67075 0.76951,5.2274 0.76951,5.2274 l 3.75,-0.31036 v 7.66877 c 0,7.59122 -0.0242,7.6627 -2.39522,7.06761 -1.31737,-0.33063 -16.98548,1.34989 -16.98548,1.34989 z M 423,124.89301 c 0,-5.32114 -1.71479,-4.93823 -2.14931,0.47993 -0.2561,3.19349 -0.0135,4.2435 0.89931,3.89302 0.70375,-0.27021 1.25,-2.18117 1.25,-4.37295 z M 402.74489,128 c -354.598584,164.76663 -354.598584,164.76663 0,0 z M 367,133.26416 c 0,-0.40471 2.32712,-7.17728 5.17138,-15.05015 0,0 -5.17138,15.45486 -5.17138,15.05015 z M 390.98888,131.25 c -342.842574,161.51663 -342.842574,161.51663 0,0 z M 428,132.87619 c 0,-0.91064 6.65322,-19.85983 9.54276,-27.17897 0.53268,-1.34928 1.58651,-1.72661 4.18921,-1.5 l 3.47748,0.30278 4.89527,13.46622 c 2.69241,7.40643 4.89528,14.04393 4.89528,14.75 0,0.79497 -1.30313,1.28378 -3.42245,1.28378 -3.02638,0 -3.55647,-0.4061 -4.58057,-3.50914 C 445.46475,125.84816 443.47248,124 440,124 c -3.81395,0 -6,2.39424 -6,6.57143 0,3.14286 -0.25,3.42857 -3,3.42857 -1.65,0 -3,-0.50571 -3,-1.12381 z M 451.74151,130.75 c -0.25986,-0.6875 -2.39415,-6.5375 -4.74286,-13 -2.34871,-6.4625 -4.61378,-11.75 -5.03349,-11.75 -0.41971,0 0.44192,3.2625 1.91474,7.25 1.47282,3.9875 3.54555,9.8375 4.60606,13 1.06052,3.1625 2.33317,5.75 2.82811,5.75 0.49495,0 0.6873,-0.5625 0.42744,-1.25 z m -9.69746,-14.5 C 441.20349,113.9125 440.28367,112 440,112 c -0.28367,0 -1.20349,1.9125 -2.04405,4.25 l -1.5283,4.25 H 440 443.57235 Z M 457,119 v -15 h 3.5 3.5 v 15 15 h -3.5 -3.5 z m 4.5,0.002 c 0,-7.14976 -0.3375,-13.00009 -0.75,-13.00074 C 460.3375,106.00053 460,111.85 460,119 c 0,7.15 0.3375,13.00033 0.75,13.00074 0.4125,4e-4 0.75,-5.84906 0.75,-12.99881 z M 466,119 v -15 l 3.75,0.0365 c 3.55509,0.0346 4.10474,0.51538 10.57502,9.25 l 6.82501,9.21349 -0.42483,-7 c -0.23366,-3.85 -0.7699,-8.0125 -1.19165,-9.25 -0.68709,-2.01607 -0.44278,-2.25 2.34982,-2.25 H 491 v 15 c 0,14.90014 -0.015,14.99975 -2.25,14.96201 -1.68629,-0.0285 -4.33381,-2.84703 -10.56732,-11.25 l -8.31731,-11.212 0.40243,9 c 0.22134,4.95 0.75412,10.0125 1.18395,11.25 0.70135,2.01921 0.46184,2.25 -2.33512,2.25 H 466 Z m 20.18824,6.97168 c -1.07527,-1.15417 -4.82001,-6.1074 -8.32164,-11.00719 -3.50163,-4.89979 -6.96124,-8.92126 -7.68803,-8.9366 -1.05442,-0.0222 -1.03777,0.25576 0.0824,1.37593 0.7721,0.7721 4.96172,6.18718 9.31026,12.03352 4.34854,5.84633 8.0562,10.1804 8.23925,9.63126 0.18304,-0.54914 -0.54696,-1.94275 -1.62223,-3.09692 z"
       id="path5"
       transform="translate(-48.146306,-292.76663)"
       clip-path="url(#clipPath6)"
       sodipodi:nodetypes="sssscsscssscssssssscsssscsssscsssscssssssssssssscsszsssssasssssssssssssssssscssssssssssssssssccssssssssscccsssscsssssssssssssssscscccscccccccccccsscccssscssscssscsssccsssssssss"
       inkscape:label="path-Again" />
  </g>
  <g
     inkscape:groupmode="layer"
     id="layer7"
     inkscape:label="Counter-Spaces">
    <g
       inkscape:groupmode="layer"
       id="layer1"
       inkscape:label="A-counter-space"
       style="display:inline;fill:#000000;fill-opacity:1">
      <path
         d="m 59.010641,67.872622 c 0.44919,-1.808 4.29262,-16.478321 7.13297,-23.819441 3.88855,-10.0503 6.964819,-18.194722 8.158839,-17.965642 -0.378096,13.70116 -0.201545,28.020148 0.201118,41.961367 -4.960578,0.05094 -8.720927,0.505957 -15.492927,-0.176284 z"
         style="display:inline;fill:#000000;fill-opacity:1"
         id="path1"
         sodipodi:nodetypes="csccc"
         inkscape:label="path-A-counter-space" />
    </g>
    <g
       inkscape:groupmode="layer"
       id="layer4"
       inkscape:label="a-counter-space"
       style="display:inline;fill:#000000;fill-opacity:1">
      <path
         d="m 219.66012,117.71173 c -1.81817,-2.19075 -3.31922,-17.21327 -0.43775,-25.852756 2.62757,-7.87827 9.37107,-16.482311 13.22906,-18.477351 3.72806,-1.92786 11.10435,-3.565351 13.17115,-1.498561 3.15922,3.15923 1.35587,15.984843 -6.04157,34.341708 -10.12043,25.114 -16.05416,16.14609 -19.92089,11.48696 z"
         style="display:inline;fill:#000000;fill-opacity:1"
         id="path1-5"
         inkscape:label="path-a-counter-space"
         sodipodi:nodetypes="ssssss" />
    </g>
    <g
       inkscape:groupmode="layer"
       id="layer3"
       inkscape:label="g-counter-space-top"
       style="display:inline;fill:#000000;fill-opacity:1">
      <path
         d="m 168.54209,69.677936 c 12.62527,5.11701 -8.20716,51.555234 -22.9005,56.397394 -14.04435,4.62829 5.26227,-63.546153 22.9005,-56.397394 z"
         style="display:inline;fill:#000000;fill-opacity:1;fill-rule:evenodd"
         id="path1-8"
         inkscape:label="path-G-top-counter-space-top"
         sodipodi:nodetypes="sss" />
    </g>
    <g
       inkscape:groupmode="layer"
       id="layer5"
       inkscape:label="g-counter-space-bottom"
       style="display:inline;fill:#000000;fill-opacity:1">
      <path
         style="display:inline;opacity:1;fill:#000000;fill-opacity:1;fill-rule:evenodd;stroke:#165d8f;stroke-width:0.116875;stroke-linecap:round;stroke-opacity:1;paint-order:stroke fill markers"
         d="m 140.51656,172.82652 c -1.94146,0.28216 -5.7449,-4.89138 -5.8823,-7.36003 -0.60712,-10.90821 4.8182,-15.45571 11.41058,-19.72935 9.4723,-6.1406 20.89362,-12.49468 22.65937,-13.34775 0.973,-0.47009 -6.68435,37.31188 -28.18765,40.43713 z"
         id="path12"
         inkscape:label="path-g-counter-space-bottom"
         sodipodi:nodetypes="sssss" />
    </g>
  </g>
  <g
     inkscape:groupmode="layer"
     id="layer6"
     inkscape:label="Dot">
    <ellipse
       style="display:inline;fill:#38af34;stroke-width:0.827384;stroke-linecap:round;paint-order:stroke fill markers"
       id="path2-3"
       cx="-307.33664"
       cy="29.442825"
       rx="9.9810715"
       ry="8.8294096"
       inkscape:label="path-Dot"
       transform="scale(-1,1)" />
  </g>
</svg>
