<?xml version="1.0" encoding="UTF-8" standalone="no"?>
<!-- Created with Inkscape (http://www.inkscape.org/) -->

<svg
   version="1.1"
   id="svg1"
   width="484.37341"
   height="31.70759"
   viewBox="0 0 484.37341 31.70759"
   sodipodi:docname="Text-SAVE THE GROVE-white.svg"
   inkscape:version="1.4 (1:1.4+202410161351+e7c3feb100)"
   xmlns:inkscape="http://www.inkscape.org/namespaces/inkscape"
   xmlns:sodipodi="http://sodipodi.sourceforge.net/DTD/sodipodi-0.dtd"
   xmlns:xlink="http://www.w3.org/1999/xlink"
   xmlns="http://www.w3.org/2000/svg"
   xmlns:svg="http://www.w3.org/2000/svg">
  <defs
     id="defs1">
    <clipPath
       clipPathUnits="userSpaceOnUse"
       id="clipPath3">
      <rect
         style="display:inline;opacity:0.39;fill:#ffffff;stroke:#0369a1;stroke-width:0.488131;stroke-linecap:round;paint-order:stroke fill markers"
         id="rect3"
         width="484.37341"
         height="31.70759"
         x="-149.46397"
         y="85.865913" />
    </clipPath>
    <filter
       inkscape:label="Light Eraser"
       inkscape:auto-region="false"
       inkscape:menu="Fill and Transparency"
       inkscape:menu-tooltip="Adds a colorizable opaque background"
       style="color-interpolation-filters:sRGB;"
       id="filter1">
      <feColorMatrix
         type="saturate"
         values="1"
         id="feColorMatrix1"
         result="fbSourceGraphic" />
      <feColorMatrix
         result="fbSourceGraphicAlpha"
         in="fbSourceGraphic"
         values="0 0 0 -1 0 0 0 0 -1 0 0 0 0 -1 0 0 0 0 1 0"
         id="feColorMatrix2" />
      <feColorMatrix
         id="feColorMatrix3"
         type="saturate"
         values="1"
         in="fbSourceGraphic"
         result="fbSourceGraphic" />
      <feColorMatrix
         result="fbSourceGraphicAlpha"
         in="fbSourceGraphic"
         values="0 0 0 -1 0 0 0 0 -1 0 0 0 0 -1 0 0 0 0 1 0"
         id="feColorMatrix4" />
      <feFlood
         id="feFlood4"
         result="result1"
         flood-color="rgb(200,55,55)"
         flood-opacity="1"
         in="fbSourceGraphic" />
      <feImage
         id="feImage4"
         xlink:href=""
         result="result2" />
      <feBlend
         id="feBlend4"
         result="result4"
         in2="result1"
         mode="multiply" />
      <feMerge
         id="feMerge4"
         result="fbSourceGraphic">
        <feMergeNode
           id="feMergeNode4"
           in="result1" />
        <feMergeNode
           id="feMergeNode5"
           in="fbSourceGraphic" />
      </feMerge>
      <feColorMatrix
         result="fbSourceGraphicAlpha"
         in="fbSourceGraphic"
         values="0 0 0 -1 0 0 0 0 -1 0 0 0 0 -1 0 0 0 0 1 0"
         id="feColorMatrix6" />
      <feColorMatrix
         id="feColorMatrix7"
         values="1 0 0 0 0 0 1 0 0 0 0 0 1 0 0 -21.25 -71.54 -7.21 50 0 "
         result="colormatrix"
         in="fbSourceGraphic" />
      <feComposite
         id="feComposite7"
         in2="colormatrix"
         operator="arithmetic"
         k2="1"
         result="composite" />
    </filter>
  </defs>
  <sodipodi:namedview
     id="namedview1"
     pagecolor="#505050"
     bordercolor="#ffffff"
     borderopacity="1"
     inkscape:showpageshadow="0"
     inkscape:pageopacity="0"
     inkscape:pagecheckerboard="1"
     inkscape:deskcolor="#505050"
     inkscape:zoom="3.1376515"
     inkscape:cx="191.70389"
     inkscape:cy="35.854843"
     inkscape:window-width="1835"
     inkscape:window-height="900"
     inkscape:window-x="1979"
     inkscape:window-y="675"
     inkscape:window-maximized="0"
     inkscape:current-layer="layer8">
    <inkscape:page
       x="2.8155056e-09"
       y="3.3739298e-07"
       width="484.37341"
       height="31.70759"
       id="page2"
       margin="0"
       bleed="0" />
  </sodipodi:namedview>
  <g
     inkscape:groupmode="layer"
     id="layer8"
     inkscape:label="Image - draft 1">
    <path
       style="display:inline;fill:#ffffff;stroke-width:0.989994;fill-opacity:1"
       d="M 4.9940686,29.335239 C 1.7474232,28.471261 3.0444339,28.665181 3.0444339,23.349171 c 0,-5.821639 1.7521408,-6.628217 2.7875655,-1.451123 1.2355619,6.177849 12.5187676,7.623716 12.5187676,1.604196 0,-2.884614 -1.330215,-3.501598 -6.929956,-6.147743 -6.3966961,-3.022738 -8.4778019,-4.000688 -8.4778019,-9.3802374 0,-4.4143343 1.0187829,-4.680702 3.0979879,-6.4451919 6.72084,-3.1892456 16.880453,-0.399618 18.249733,4.9652322 0.879986,3.4477901 -1.921152,4.0892511 -4.317145,1.1930902 -2.801327,-3.3861108 -6.753035,-4.300788 -8.976165,-2.0776567 -2.1656005,2.1656057 -0.967293,3.3752238 5.811481,5.8663406 6.115598,2.247405 9.461817,5.723133 9.461817,9.828023 0,8.139572 -9.085273,11.275427 -21.2766494,8.031138 z M 215.77902,29.775608 c -7.79746,-3.859759 -10.86514,-14.786856 -6.11193,-21.7707764 5.35268,-7.86472035 12.81216,-9.7811011 21.89206,-5.624189 4.05668,1.8572108 5.67473,3.1909543 6.1452,5.0654088 1.41681,5.6450226 -2.4016,7.6120796 -5.00473,2.5781826 -4.14706,-8.0195415 -14.39001,-6.4931145 -17.38811,2.591216 -2.81694,8.53543 5.68239,17.0917 13.0573,13.144772 1.64026,-0.877837 1.93272,-1.876315 1.66741,-5.692464 l -0.32176,-4.627905 h 3.95998 c 3.14284,0 3.94296,0.357497 3.87748,1.732489 -0.0453,0.952869 -0.15675,4.189803 -0.2475,7.193177 -0.16005,5.296883 -0.24667,5.456183 -2.88748,5.310377 -1.49737,-0.08267 -3.9766,0.355734 -5.50942,0.974263 -4.13172,1.667248 -8.59409,1.369983 -13.1285,-0.874551 z m 55.46611,0.606619 c -9.9889,-4.350885 -12.34788,-17.628262 -4.52236,-25.4537796 7.94387,-7.9438714 21.575,-5.26956129 25.85917,5.0733466 1.63112,3.937877 0.80567,11.887176 -1.57556,15.173045 -4.05579,5.596594 -13.28448,8.028494 -19.76125,5.207388 z m 13.414,-5.537432 c 4.17553,-4.175527 1.79377,-14.171492 -4.25554,-17.8599699 -4.31023,-2.6281032 -7.09286,-2.4329377 -9.53253,0.6685854 -3.79905,4.8297205 -1.59033,13.7102685 4.30389,17.3045605 3.93392,2.398904 7.00879,2.362215 9.48418,-0.113176 z m 112.31523,5.537432 C 387.4733,26.243834 384.7457,13.473268 391.67678,5.5791921 c 5.48081,-6.24228567 15.10571,-7.1436148 22.68967,-2.1247852 3.34302,2.2123116 3.94185,3.1328455 3.94185,6.0595292 0,4.4588789 -2.75187,4.6914639 -5.17292,0.4372173 -2.2271,-3.9134307 -7.07448,-6.0102418 -10.85097,-4.6937518 -4.4382,1.5471654 -6.74597,5.2715964 -6.74597,10.8871094 0,4.087635 0.47613,5.368737 2.89383,7.78644 3.02703,3.027025 6.62578,3.696875 10.04117,1.86901 1.49848,-0.801965 1.91491,-2.093728 1.91491,-5.939964 v -4.915141 h 3.40656 c 1.8736,0 3.6897,0.458139 4.03576,1.01809 0.34607,0.55994 0.31646,3.938512 -0.0658,7.507935 -0.61832,5.773803 -0.90659,6.434505 -2.61284,5.988315 -1.05481,-0.275832 -3.43484,0.132323 -5.28895,0.907013 -4.16371,1.739706 -8.91787,1.745616 -12.88872,0.01604 z M 27.260712,29.65861 c 0,-0.619389 2.289965,-7.325014 5.088816,-14.901398 l 5.088806,-13.77523869 3.573641,0.29898209 3.57363,0.2989831 5.189112,13.8599145 c 2.854013,7.622953 5.192874,14.194037 5.19747,14.60241 0.0046,0.408372 -1.739082,0.742495 -3.874838,0.742495 -3.559473,0 -3.978449,-0.288603 -5.025733,-3.461909 -2.007272,-6.082087 -7.188881,-8.160114 -10.955441,-4.393544 -1.542133,1.542124 -1.887681,2.75839 -1.406336,4.94997 0.613163,2.791693 0.499373,2.905483 -2.905484,2.905483 -1.988056,0 -3.543643,-0.494353 -3.543643,-1.126148 z M 42.035311,16.182348 C 41.99393,15.773976 41.415585,13.935031 40.7502,12.095806 l -1.209782,-3.3440467 -1.605236,4.0865417 -1.605245,4.086543 h 2.890347 c 1.589682,0 2.856449,-0.334123 2.815027,-0.742496 z M 61.07224,16.663327 C 58.266304,8.896538 55.970538,2.2140791 55.970538,1.8134167 c 0,-0.4006614 1.745667,-0.7284751 3.879261,-0.7284751 3.878754,0 3.87953,8.078e-4 5.939979,6.1874619 1.133395,3.4031035 2.878776,8.3405205 3.878623,10.9720425 l 1.817906,4.784571 3.128255,-8.587316 c 1.958569,-5.3764245 2.904461,-9.478984 2.529729,-10.9720354 -0.549563,-2.1896299 -0.306278,-2.384724 2.973774,-2.384724 4.276043,0 4.367226,0.6165038 1.255952,8.491764 -1.273993,3.2247304 -3.546677,9.3157514 -5.050409,13.5356004 l -2.734059,7.672452 h -3.707803 -3.707804 z m 24.538115,13.659926 c -0.033,-0.290672 -0.087,-6.876825 -0.119999,-14.635902 l -0.06,-14.1074125 h 10.267436 10.267438 v 2.4749848 c 0,1.9322483 -0.43419,2.3978434 -1.97999,2.1232062 -1.08899,-0.1934774 -4.0961,-0.5705968 -6.682458,-0.8380427 L 92.600308,4.8538216 v 5.0455168 c 0,4.6893576 0.170583,5.0455176 2.416558,5.0455176 1.329108,0 2.691891,-0.445497 3.028409,-0.989994 0.336517,-0.544497 1.253805,-0.989994 2.038415,-0.989994 1.00433,0 1.42656,1.172076 1.42656,3.959976 0,3.259842 -0.33973,3.959975 -1.92156,3.959975 -1.056857,0 -2.196892,-0.445497 -2.533409,-0.989994 -0.336518,-0.544496 -1.476552,-0.989994 -2.533412,-0.989994 -1.589067,0 -1.921561,0.701065 -1.921561,4.0516 v 4.0516 l 5.197468,-0.476227 c 2.858604,-0.261923 6.088464,-0.637279 7.177454,-0.834119 1.54743,-0.279703 1.97999,0.182802 1.97999,2.117092 0,2.469074 -0.0254,2.475657 -10.642435,2.755974 -5.853339,0.154548 -10.669434,0.04316 -10.702434,-0.247498 z M 129.23008,17.914838 c 0,-11.7332613 -0.15738,-12.8699208 -1.78199,-12.8699208 -0.98009,0 -2.28663,0.5046514 -2.90343,1.1214473 -1.74985,1.7498508 -4.40952,0.2022656 -4.04645,-2.3545134 0.3133,-2.2063608 0.50678,-2.2339074 16.89932,-2.406101 l 16.5824,-0.1741884 v 6.8566472 6.8566471 h 5.0512 5.05119 l -0.34872,-6.6824586 -0.34873,-6.6824589 3.71248,-0.3072604 3.71248,-0.30725946 V 15.875084 30.784758 h -3.96899 -3.96898 l 0.25651,-5.692465 0.2565,-5.692465 -4.70247,-0.30174 -4.70247,-0.30174 v 6.053961 6.053971 l -3.68711,-0.307254 -3.68713,-0.307265 0.31205,-12.68696 c 0.31012,-12.6084784 0.29939,-12.6790551 -1.73313,-11.4097176 -1.61385,1.0078653 -2.30095,1.0214767 -3.25789,0.064538 -0.66698,-0.6669866 -2.0146,-1.2127019 -2.9947,-1.2127019 -1.6246,0 -1.78199,1.1366595 -1.78199,12.8699185 v 12.86992 h -3.95997 -3.95998 z M 171.79982,15.93485 V 1.0849416 h 10.39494 10.39493 v 2.9699817 c 0,2.9378079 -2.12318,4.1510563 -3.46498,1.9799878 -0.33651,-0.5444967 -2.59029,-0.9899939 -5.00838,-0.9899939 h -4.39656 v 5.0653798 c 0,5.500597 -0.1432,5.429575 6.68246,3.314029 2.06792,-0.64093 2.22749,-0.390166 2.22749,3.500468 0,4.515333 0.007,4.512798 -6.68246,2.439494 -2.06106,-0.638804 -2.22749,-0.38589 -2.22749,3.385056 v 4.075439 h 4.52006 c 2.48603,0 5.42959,-0.48677 6.54124,-1.081707 2.56586,-1.373201 4.23055,0.109661 3.32524,2.962042 -0.61756,1.945793 -1.35663,2.07964 -11.48327,2.07964 h -10.82322 z m 67.25959,14.354911 c -0.033,-0.272248 -0.088,-6.843333 -0.12218,-14.60241 l -0.0622,-14.1074125 8.80874,-0.2816928 c 7.77138,-0.2485192 9.06824,-0.039946 11.01212,1.7710545 3.38643,3.1549462 2.97675,8.0787998 -0.94688,11.3803208 l -3.15025,2.650758 3.15025,5.730293 c 1.73263,3.151665 3.15024,6.230645 3.15024,6.842194 0,0.629468 -1.6492,1.111892 -3.80106,1.111892 -3.19071,0 -3.99707,-0.437161 -5.02171,-2.722483 -0.67136,-1.497366 -1.90539,-3.783608 -2.74227,-5.08054 -1.92068,-2.976476 -3.24762,-1.316405 -3.2697,4.090546 -0.0146,3.579947 -0.13886,3.712477 -3.48014,3.712477 -1.90573,0 -3.49198,-0.222748 -3.52498,-0.494997 z m 10.52996,-16.970096 c 5.48348,-3.5929122 5.09237,-8.2747478 -0.69124,-8.2747478 -2.75852,0 -2.84877,0.1568051 -2.84877,4.9499692 0,2.7224836 0.23843,4.9499696 0.52984,4.9499696 0.2914,0 1.64598,-0.731338 3.01017,-1.625191 z m 50.0714,3.343662 c -2.80594,-7.766789 -5.10171,-14.4492479 -5.10171,-14.8499103 0,-0.4006614 1.74567,-0.7284751 3.87927,-0.7284751 3.87875,0 3.87952,8.078e-4 5.93998,6.1874619 1.13339,3.4031035 2.87877,8.3405205 3.87862,10.9720425 l 1.8179,4.784571 3.12826,-8.587316 c 1.95857,-5.3764245 2.90446,-9.478984 2.52973,-10.9720354 -0.54956,-2.1896299 -0.30628,-2.384724 2.97378,-2.384724 4.27604,0 4.36722,0.6165038 1.25595,8.491764 -1.274,3.2247304 -3.54668,9.3157514 -5.05041,13.5356004 l -2.73407,7.672452 h -3.7078 -3.70779 z M 323.26889,15.93485 V 1.0849416 h 10.39493 10.39494 v 2.9699817 c 0,2.9378079 -2.12318,4.1510563 -3.46498,1.9799878 -0.33652,-0.5444967 -2.59029,-0.9899939 -5.00839,-0.9899939 h -4.39655 v 5.0653798 c 0,5.500597 -0.1432,5.429575 6.68246,3.314029 2.06792,-0.64093 2.22748,-0.390166 2.22748,3.500468 0,4.515333 0.007,4.512798 -6.68246,2.439494 -2.06105,-0.638804 -2.22748,-0.38589 -2.22748,3.385056 v 4.075439 h 4.52005 c 2.48604,0 5.4296,-0.48677 6.54125,-1.081707 2.56586,-1.373201 4.23055,0.109661 3.32524,2.962042 -0.61757,1.945793 -1.35664,2.07964 -11.48327,2.07964 h -10.82322 z m 35.95358,13.117419 c 0.29959,-0.952869 2.70314,-7.523954 5.34122,-14.60241 L 369.3602,1.5799385 h 3.80142 3.80142 l 4.81179,13.3649175 c 2.6465,7.350705 4.82122,13.921789 4.83274,14.60241 0.0133,0.787233 -1.4199,1.237492 -3.93905,1.237492 -2.91638,0 -3.95997,-0.404303 -3.95997,-1.534154 0,-0.843781 -0.67635,-2.842064 -1.503,-4.440627 -3.13376,-6.06003 -11.36692,-4.225621 -11.36692,2.532622 0,3.295046 -0.15303,3.442159 -3.58045,3.442159 -2.95745,0 -3.48566,-0.301443 -3.03571,-1.732489 z M 373.6096,13.953041 c -1.46494,-4.2023353 -2.46354,-4.4279576 -3.71456,-0.839268 -0.59753,1.714095 -1.08643,3.272811 -1.08643,3.463801 0,0.190999 1.31331,0.34727 2.91848,0.34727 2.81323,0 2.88113,-0.107167 1.88251,-2.971803 z m 45.6887,16.213179 c 0,-0.340192 2.32355,-7.02265 5.16344,-14.849909 l 5.16344,-14.2313694 h 3.58409 3.58409 l 5.11239,13.7971684 c 2.81181,7.588432 5.11237,14.270891 5.11237,14.849909 0,0.579007 -1.71147,1.052739 -3.80326,1.052739 -3.58662,0 -3.87163,-0.228174 -5.00336,-4.005525 -1.33193,-4.445597 -4.42035,-6.516387 -8.27554,-5.548797 -2.76615,0.694253 -4.80333,4.481564 -4.02061,7.474692 0.47849,1.829746 0.11362,2.07963 -3.03661,2.07963 -1.96924,0 -3.58044,-0.278337 -3.58044,-0.618538 z m 14.8499,-13.869013 c 0,-0.345201 -0.52029,-2.364224 -1.1562,-4.486719 l -1.15621,-3.8590814 -1.30388,3.7442234 c -1.75193,5.030898 -1.70865,5.229214 1.14131,5.229214 1.36124,0 2.47498,-0.282436 2.47498,-0.627637 z M 448.00812,15.93485 V 1.0849416 h 3.95997 3.95998 V 15.93485 30.784758 h -3.95998 -3.95997 z m 9.13098,0.247498 0.27396,-14.6024095 3.66337,-0.304332 c 3.53767,-0.29388959 3.85694,-0.039105 9.30421,7.4249542 3.10247,4.2511073 6.055,8.1747833 6.56119,8.7192803 1.11816,1.202793 0.54888,-12.0505949 -0.62723,-14.6024101 -0.68148,-1.4786321 -0.27137,-1.7324893 2.79888,-1.7324893 h 3.59736 l -0.27396,14.6024094 c -0.26563,14.157507 -0.3398,14.611786 -2.43458,14.910001 -1.7318,0.246539 -3.74578,-1.797848 -10.14744,-10.300678 L 461.86803,9.6883955 v 8.5097685 c 0,4.680374 0.4455,8.785097 0.99,9.121616 2.36327,1.460577 0.91625,3.464978 -2.50145,3.464978 h -3.49144 z"
       id="path9-5"
       sodipodi:nodetypes="sscssscsscssssssssssscsssssssssssssssssssssssssscssssssssccccscssccsscscccscssssscssssscccssscccssscssssssssscssssssssssscccccccccccccccccccccssssscccsccccssscssssscssssccsscssscssssssssssssssssssscssssscccsccccssscssssscssssccsscccssssssssssssssscccsssssssssscssscccccccccccssssscssscssscc" />
  </g>
</svg>
